<svg width="777" height="747" viewBox="0 0 777 747" fill="none" xmlns="http://www.w3.org/2000/svg">
<path d="M532.574 711.779H528.489C528.954 703.41 529.984 696.502 531.578 691.055C533.238 685.542 536.626 677.903 541.741 668.139C545.726 660.633 548.317 654.887 549.512 650.902C550.708 646.85 551.306 642.765 551.306 638.647C551.306 630.211 549.047 623.502 544.53 618.52C540.08 613.538 534.6 611.047 528.091 611.047C522.312 611.047 517.762 612.409 514.44 615.132C511.119 617.856 509.459 620.812 509.459 624C509.459 626.458 510.455 629.48 512.448 633.067C514.44 636.654 515.437 639.377 515.437 641.237C515.437 643.628 514.673 645.654 513.145 647.315C511.617 648.909 509.757 649.706 507.565 649.706C504.776 649.706 502.218 648.344 499.893 645.621C497.635 642.831 496.506 638.979 496.506 634.063C496.506 626.557 499.727 619.915 506.171 614.136C512.614 608.357 521.348 605.468 532.375 605.468C546.058 605.468 556.121 609.453 562.565 617.424C567.347 623.269 569.738 629.746 569.738 636.853C569.738 641.702 568.642 646.684 566.45 651.798C564.325 656.913 560.24 662.924 554.195 669.833C544.564 680.726 538.652 688.465 536.46 693.048C534.334 697.565 533.039 703.809 532.574 711.779ZM531.179 724.134C534.301 724.134 536.925 725.23 539.05 727.422C541.242 729.548 542.338 732.171 542.338 735.293C542.338 738.349 541.242 740.973 539.05 743.165C536.858 745.29 534.235 746.353 531.179 746.353C528.124 746.353 525.5 745.29 523.308 743.165C521.182 740.973 520.12 738.349 520.12 735.293C520.12 732.171 521.182 729.548 523.308 727.422C525.5 725.23 528.124 724.134 531.179 724.134Z" fill="black"/>
<path d="M467.508 622.406V652.397H488.83V659.371H467.508V718.555C467.508 724.467 468.339 728.452 469.999 730.511C471.726 732.57 473.918 733.6 476.575 733.6C478.767 733.6 480.893 732.936 482.952 731.607C485.011 730.212 486.605 728.186 487.734 725.529H491.62C489.295 732.039 486.007 736.954 481.756 740.276C477.505 743.53 473.121 745.158 468.604 745.158C465.549 745.158 462.56 744.327 459.637 742.667C456.714 740.94 454.556 738.515 453.161 735.393C451.766 732.205 451.068 727.323 451.068 720.747V659.371H436.621V656.083C440.274 654.622 443.994 652.164 447.78 648.71C451.633 645.19 455.054 641.038 458.043 636.256C459.571 633.732 461.696 629.115 464.42 622.406H467.508Z" fill="black"/>
<path d="M369.762 686.772C369.695 700.322 372.983 710.95 379.626 718.655C386.268 726.36 394.073 730.213 403.04 730.213C409.018 730.213 414.199 728.586 418.583 725.331C423.034 722.01 426.753 716.364 429.742 708.393L432.831 710.385C431.436 719.485 427.384 727.788 420.676 735.294C413.967 742.734 405.564 746.454 395.468 746.454C384.508 746.454 375.109 742.202 367.271 733.7C359.499 725.131 355.613 713.64 355.613 699.226C355.613 683.616 359.599 671.461 367.57 662.759C375.607 653.991 385.67 649.607 397.759 649.607C407.989 649.607 416.391 652.995 422.967 659.77C429.543 666.479 432.831 675.48 432.831 686.772H369.762ZM369.762 680.993H412.007C411.675 675.147 410.978 671.029 409.915 668.638C408.254 664.918 405.763 661.995 402.442 659.87C399.187 657.744 395.767 656.682 392.18 656.682C386.667 656.682 381.718 658.84 377.334 663.158C373.016 667.409 370.492 673.354 369.762 680.993Z" fill="black"/>
<path d="M329.903 605.468L333.39 648.112H329.903C326.382 637.484 321.832 629.48 316.253 624.1C308.215 616.328 297.886 612.442 285.266 612.442C268.062 612.442 254.976 619.251 246.009 632.868C238.503 644.359 234.75 658.042 234.75 673.918C234.75 686.804 237.241 698.561 242.223 709.189C247.205 719.817 253.714 727.622 261.752 732.603C269.855 737.519 278.158 739.976 286.661 739.976C291.642 739.976 296.458 739.345 301.108 738.083C305.758 736.821 310.241 734.961 314.559 732.504V693.446C314.559 686.671 314.027 682.254 312.965 680.195C311.968 678.069 310.374 676.475 308.182 675.412C306.056 674.283 302.27 673.718 296.823 673.718V669.932H349.132V673.718H346.641C341.46 673.718 337.907 675.445 335.98 678.899C334.652 681.357 333.988 686.206 333.988 693.446V734.795C326.349 738.914 318.81 741.936 311.37 743.862C303.931 745.788 295.661 746.752 286.561 746.752C260.456 746.752 240.629 738.382 227.078 721.643C216.915 709.089 211.834 694.609 211.834 678.202C211.834 666.312 214.69 654.92 220.403 644.027C227.178 631.074 236.477 621.111 248.301 614.136C258.198 608.357 269.889 605.468 283.373 605.468C288.288 605.468 292.738 605.866 296.724 606.663C300.776 607.46 306.488 609.221 313.861 611.944C317.581 613.339 320.072 614.036 321.334 614.036C322.596 614.036 323.659 613.472 324.522 612.343C325.452 611.147 326.017 608.855 326.216 605.468H329.903Z" fill="black"/>
<path d="M760.882 496.458V551.756C760.882 562.317 761.115 568.794 761.58 571.185C762.111 573.51 762.908 575.137 763.971 576.067C765.1 576.997 766.396 577.462 767.857 577.462C769.916 577.462 772.241 576.897 774.831 575.768L776.226 579.256L748.926 590.514H744.442V571.185C736.604 579.687 730.626 585.034 726.508 587.226C722.39 589.418 718.039 590.514 713.456 590.514C708.341 590.514 703.891 589.053 700.104 586.13C696.385 583.141 693.794 579.322 692.333 574.672C690.871 570.023 690.141 563.447 690.141 554.944V514.193C690.141 509.876 689.676 506.887 688.746 505.226C687.816 503.565 686.421 502.303 684.561 501.44C682.768 500.51 679.48 500.078 674.697 500.145V496.458H706.68V557.535C706.68 566.037 708.142 571.617 711.064 574.274C714.053 576.931 717.64 578.259 721.825 578.259C724.681 578.259 727.903 577.362 731.49 575.569C735.143 573.776 739.461 570.355 744.442 565.306V513.595C744.442 508.414 743.479 504.927 741.553 503.134C739.693 501.274 735.774 500.277 729.796 500.145V496.458H760.882Z" fill="black"/>
<path d="M626.779 493.768C640.596 493.768 651.688 499.015 660.058 509.51C667.165 518.477 670.719 528.773 670.719 540.397C670.719 548.567 668.759 556.837 664.84 565.207C660.921 573.576 655.508 579.886 648.6 584.137C641.758 588.389 634.119 590.514 625.683 590.514C611.934 590.514 601.007 585.034 592.903 574.074C586.061 564.841 582.641 554.479 582.641 542.988C582.641 534.618 584.7 526.315 588.818 518.079C593.003 509.776 598.483 503.665 605.258 499.746C612.033 495.76 619.207 493.768 626.779 493.768ZM623.691 500.244C620.17 500.244 616.616 501.307 613.03 503.432C609.509 505.491 606.653 509.145 604.461 514.392C602.269 519.64 601.173 526.382 601.173 534.618C601.173 547.903 603.797 559.361 609.044 568.993C614.358 578.624 621.333 583.44 629.968 583.44C636.411 583.44 641.725 580.783 645.909 575.469C650.094 570.155 652.186 561.022 652.186 548.069C652.186 531.862 648.699 519.108 641.725 509.809C637.009 503.432 630.997 500.244 623.691 500.244Z" fill="black"/>
<path d="M559.775 452.618H606.903V456.305H604.313C602.586 456.305 600.062 457.069 596.74 458.596C593.419 460.124 590.397 462.316 587.673 465.172C584.95 468.029 581.596 472.678 577.61 479.121L545.029 530.434V564.31C545.029 572.613 545.959 577.794 547.819 579.853C550.343 582.643 554.329 584.038 559.775 584.038H564.159V587.725H506.769V584.038H511.552C517.264 584.038 521.316 582.311 523.707 578.857C525.169 576.731 525.899 571.882 525.899 564.31V532.327L488.835 475.734C484.451 469.091 481.462 464.94 479.867 463.279C478.34 461.619 475.118 459.626 470.203 457.301C468.874 456.637 466.948 456.305 464.424 456.305V452.618H522.213V456.305H519.224C516.102 456.305 513.212 457.035 510.555 458.497C507.965 459.958 506.669 462.15 506.669 465.073C506.669 467.464 508.695 471.782 512.747 478.025L540.944 521.566L567.447 479.918C571.433 473.675 573.426 469.025 573.426 465.969C573.426 464.11 572.927 462.449 571.931 460.988C571.001 459.526 569.639 458.397 567.846 457.6C566.052 456.736 563.362 456.305 559.775 456.305V452.618Z" fill="black"/>
<path d="M403.34 466.467V496.457H424.662V503.432H403.34V562.615C403.34 568.527 404.171 572.513 405.831 574.572C407.558 576.631 409.75 577.661 412.407 577.661C414.599 577.661 416.725 576.996 418.784 575.668C420.843 574.273 422.437 572.247 423.566 569.59H427.452C425.127 576.1 421.839 581.015 417.588 584.336C413.337 587.591 408.953 589.218 404.436 589.218C401.381 589.218 398.392 588.388 395.469 586.727C392.546 585 390.388 582.576 388.993 579.454C387.598 576.266 386.9 571.383 386.9 564.807V503.432H372.453V500.144C376.106 498.682 379.826 496.225 383.612 492.771C387.465 489.25 390.886 485.099 393.875 480.316C395.403 477.792 397.528 473.176 400.252 466.467H403.34Z" fill="black"/>
<path d="M341.959 574.572C332.593 581.813 326.715 585.997 324.323 587.126C320.736 588.787 316.917 589.617 312.865 589.617C306.555 589.617 301.341 587.459 297.222 583.141C293.17 578.823 291.145 573.144 291.145 566.103C291.145 561.653 292.141 557.8 294.134 554.546C296.857 550.029 301.573 545.778 308.282 541.792C315.057 537.807 326.283 532.958 341.959 527.245V523.658C341.959 514.558 340.498 508.314 337.575 504.927C334.719 501.539 330.534 499.845 325.021 499.845C320.836 499.845 317.515 500.975 315.057 503.233C312.533 505.491 311.271 508.082 311.271 511.005L311.47 516.784C311.47 519.839 310.673 522.197 309.079 523.858C307.551 525.518 305.525 526.349 303.001 526.349C300.544 526.349 298.518 525.485 296.923 523.758C295.396 522.031 294.632 519.673 294.632 516.684C294.632 510.971 297.554 505.724 303.4 500.941C309.245 496.159 317.448 493.768 328.01 493.768C336.114 493.768 342.756 495.129 347.937 497.853C351.856 499.912 354.746 503.133 356.605 507.517C357.801 510.374 358.399 516.219 358.399 525.053V556.04C358.399 564.742 358.565 570.089 358.897 572.081C359.229 574.008 359.761 575.303 360.491 575.967C361.288 576.632 362.185 576.964 363.181 576.964C364.244 576.964 365.174 576.731 365.971 576.266C367.366 575.403 370.056 572.978 374.042 568.993V574.572C366.602 584.536 359.495 589.518 352.72 589.518C349.465 589.518 346.874 588.389 344.948 586.13C343.022 583.872 342.025 580.019 341.959 574.572ZM341.959 568.096V533.323C331.929 537.308 325.453 540.132 322.53 541.792C317.282 544.715 313.529 547.77 311.271 550.959C309.013 554.147 307.883 557.634 307.883 561.42C307.883 566.203 309.311 570.188 312.168 573.377C315.024 576.499 318.312 578.06 322.032 578.06C327.08 578.06 333.722 574.738 341.959 568.096Z" fill="black"/>
<path d="M448.876 350.473V381.559H445.588C443.064 371.795 439.809 365.152 435.824 361.632C431.905 358.111 426.89 356.351 420.779 356.351C416.129 356.351 412.376 357.58 409.52 360.038C406.664 362.495 405.236 365.219 405.236 368.208C405.236 371.928 406.298 375.116 408.424 377.773C410.483 380.496 414.668 383.386 420.978 386.441L435.525 393.515C449.009 400.091 455.751 408.76 455.751 419.52C455.751 427.823 452.596 434.532 446.286 439.647C440.042 444.695 433.034 447.219 425.262 447.219C419.683 447.219 413.306 446.223 406.132 444.23C403.94 443.566 402.147 443.234 400.752 443.234C399.224 443.234 398.029 444.097 397.165 445.824H393.877V413.243H397.165C399.025 422.543 402.579 429.55 407.826 434.267C413.074 438.983 418.952 441.341 425.462 441.341C430.045 441.341 433.765 440.012 436.621 437.355C439.544 434.632 441.005 431.377 441.005 427.591C441.005 423.008 439.377 419.155 436.123 416.033C432.934 412.911 426.524 408.959 416.893 404.176C407.262 399.394 400.951 395.076 397.962 391.224C394.973 387.438 393.479 382.655 393.479 376.876C393.479 369.37 396.036 363.093 401.15 358.045C406.332 352.997 413.007 350.473 421.177 350.473C424.764 350.473 429.115 351.237 434.23 352.764C437.617 353.761 439.876 354.259 441.005 354.259C442.068 354.259 442.898 354.026 443.496 353.561C444.094 353.096 444.791 352.067 445.588 350.473H448.876Z" fill="black"/>
<path d="M382.613 440.742V444.429H324.725V440.742H329.507C335.087 440.742 339.139 439.115 341.663 435.86C343.257 433.734 344.054 428.62 344.054 420.516V333.235C344.054 326.393 343.622 321.876 342.759 319.684C342.094 318.024 340.733 316.596 338.674 315.4C335.751 313.806 332.695 313.009 329.507 313.009H324.725V309.322H382.613V313.009H377.731C372.218 313.009 368.199 314.636 365.675 317.891C364.014 320.017 363.184 325.131 363.184 333.235V420.516C363.184 427.358 363.616 431.875 364.479 434.067C365.144 435.727 366.538 437.155 368.664 438.351C371.52 439.945 374.543 440.742 377.731 440.742H382.613Z" fill="black"/>
<path d="M439.562 199.33H482.107V203.017H480.015C477.026 203.017 474.767 203.681 473.239 205.009C471.778 206.271 471.047 207.866 471.047 209.792C471.047 212.382 472.143 215.969 474.335 220.553L496.554 266.584L516.98 216.169C518.109 213.445 518.673 210.755 518.673 208.098C518.673 206.902 518.441 206.006 517.976 205.408C517.445 204.677 516.614 204.113 515.485 203.714C514.356 203.249 512.363 203.017 509.507 203.017V199.33H539.198V203.017C536.741 203.282 534.848 203.814 533.519 204.611C532.191 205.408 530.729 206.902 529.135 209.094C528.537 210.024 527.408 212.582 525.748 216.766L488.583 307.834C484.996 316.668 480.28 323.344 474.435 327.86C468.656 332.377 463.077 334.636 457.696 334.636C453.777 334.636 450.556 333.507 448.032 331.248C445.507 328.99 444.245 326.399 444.245 323.477C444.245 320.687 445.142 318.428 446.936 316.701C448.795 315.041 451.32 314.21 454.508 314.21C456.7 314.21 459.689 314.941 463.475 316.402C466.132 317.399 467.793 317.897 468.457 317.897C470.45 317.897 472.608 316.867 474.933 314.808C477.325 312.749 479.716 308.764 482.107 302.852L488.583 287.01L455.803 218.161C454.807 216.102 453.213 213.545 451.021 210.489C449.36 208.164 447.998 206.604 446.936 205.806C445.408 204.744 442.95 203.814 439.562 203.017V199.33Z" fill="black"/>
<path d="M409.867 277.445C400.501 284.686 394.623 288.87 392.232 290C388.645 291.66 384.825 292.49 380.773 292.49C374.463 292.49 369.249 290.332 365.131 286.014C361.079 281.697 359.053 276.017 359.053 268.976C359.053 264.526 360.049 260.673 362.042 257.419C364.765 252.902 369.481 248.651 376.19 244.665C382.965 240.68 394.191 235.831 409.867 230.118V226.531C409.867 217.431 408.406 211.187 405.483 207.8C402.627 204.412 398.442 202.718 392.929 202.718C388.744 202.718 385.423 203.848 382.965 206.106C380.441 208.364 379.179 210.955 379.179 213.878L379.378 219.657C379.378 222.712 378.581 225.07 376.987 226.731C375.459 228.391 373.434 229.222 370.909 229.222C368.452 229.222 366.426 228.358 364.832 226.631C363.304 224.904 362.54 222.546 362.54 219.557C362.54 213.844 365.463 208.597 371.308 203.814C377.153 199.032 385.357 196.641 395.918 196.641C404.022 196.641 410.664 198.002 415.845 200.726C419.764 202.785 422.654 206.006 424.514 210.39C425.709 213.247 426.307 219.092 426.307 227.926V258.913C426.307 267.615 426.473 272.962 426.805 274.955C427.137 276.881 427.669 278.176 428.399 278.84C429.196 279.505 430.093 279.837 431.09 279.837C432.152 279.837 433.082 279.604 433.879 279.139C435.274 278.276 437.964 275.851 441.95 271.866V277.445C434.51 287.409 427.403 292.391 420.628 292.391C417.373 292.391 414.782 291.262 412.856 289.003C410.93 286.745 409.934 282.892 409.867 277.445ZM409.867 270.969V236.196C399.837 240.182 393.361 243.005 390.438 244.665C385.191 247.588 381.438 250.643 379.179 253.832C376.921 257.02 375.792 260.507 375.792 264.293C375.792 269.076 377.22 273.061 380.076 276.25C382.932 279.372 386.22 280.933 389.94 280.933C394.988 280.933 401.631 277.611 409.867 270.969Z" fill="black"/>
<path d="M335.834 152.402V199.132H332.148C330.952 190.164 328.793 183.024 325.671 177.71C322.616 172.396 318.232 168.178 312.519 165.056C306.807 161.934 300.895 160.373 294.784 160.373C287.876 160.373 282.164 162.499 277.647 166.75C273.13 170.935 270.871 175.717 270.871 181.097C270.871 185.216 272.3 188.969 275.156 192.356C279.274 197.338 289.072 203.981 304.548 212.284C317.169 219.059 325.771 224.273 330.354 227.926C335.004 231.513 338.557 235.764 341.015 240.68C343.539 245.595 344.801 250.743 344.801 256.123C344.801 266.353 340.816 275.187 332.845 282.627C324.941 290 314.744 293.686 302.257 293.686C298.338 293.686 294.651 293.387 291.197 292.789C289.138 292.457 284.854 291.262 278.344 289.203C271.901 287.077 267.816 286.014 266.089 286.014C264.428 286.014 263.1 286.512 262.103 287.509C261.174 288.505 260.476 290.564 260.011 293.686H256.325V247.355H260.011C261.738 257.053 264.063 264.327 266.986 269.176C269.908 273.958 274.359 277.944 280.337 281.132C286.381 284.32 292.991 285.915 300.164 285.915C308.467 285.915 315.01 283.723 319.793 279.339C324.642 274.955 327.066 269.774 327.066 263.795C327.066 260.474 326.136 257.12 324.276 253.732C322.483 250.345 319.66 247.189 315.807 244.267C313.217 242.274 306.143 238.056 294.585 231.613C283.027 225.103 274.79 219.922 269.875 216.07C265.026 212.217 261.34 207.966 258.815 203.316C256.291 198.667 255.029 193.552 255.029 187.972C255.029 178.274 258.749 169.938 266.189 162.964C273.628 155.923 283.093 152.402 294.585 152.402C301.759 152.402 309.364 154.163 317.401 157.683C321.121 159.344 323.745 160.174 325.273 160.174C327 160.174 328.395 159.676 329.457 158.679C330.587 157.617 331.483 155.524 332.148 152.402H335.834Z" fill="black"/>
<path d="M760.882 49.7139V105.012C760.882 115.573 761.115 122.05 761.58 124.441C762.111 126.766 762.908 128.393 763.971 129.323C765.1 130.253 766.396 130.718 767.857 130.718C769.916 130.718 772.241 130.153 774.831 129.024L776.226 132.511L748.926 143.77H744.442V124.441C736.604 132.943 730.626 138.29 726.508 140.482C722.39 142.674 718.039 143.77 713.456 143.77C708.341 143.77 703.891 142.309 700.104 139.386C696.385 136.397 693.794 132.578 692.333 127.928C690.871 123.278 690.141 116.702 690.141 108.2V67.4491C690.141 63.1315 689.676 60.1424 688.746 58.4818C687.816 56.8212 686.421 55.5592 684.561 54.6957C682.768 53.7657 679.48 53.334 674.697 53.4004V49.7139H706.68V110.791C706.68 119.293 708.142 124.873 711.064 127.53C714.053 130.187 717.64 131.515 721.825 131.515C724.681 131.515 727.903 130.618 731.49 128.825C735.143 127.031 739.461 123.611 744.442 118.562V66.8513C744.442 61.6702 743.479 58.1829 741.553 56.3895C739.693 54.5296 735.774 53.5332 729.796 53.4004V49.7139H760.882Z" fill="black"/>
<path d="M626.779 47.0234C640.596 47.0234 651.688 52.2709 660.058 62.7659C667.165 71.7332 670.719 82.0289 670.719 93.6531C670.719 101.823 668.759 110.093 664.84 118.462C660.921 126.832 655.508 133.142 648.6 137.393C641.758 141.644 634.119 143.77 625.683 143.77C611.934 143.77 601.007 138.29 592.903 127.33C586.061 118.097 582.641 107.735 582.641 96.2436C582.641 87.8742 584.7 79.5712 588.818 71.3346C593.003 63.0316 598.483 56.9206 605.258 53.0016C612.033 49.0162 619.207 47.0234 626.779 47.0234ZM623.691 53.4998C620.17 53.4998 616.616 54.5626 613.03 56.6881C609.509 58.7473 606.653 62.4006 604.461 67.6481C602.269 72.8956 601.173 79.6376 601.173 87.8742C601.173 101.159 603.797 112.617 609.044 122.249C614.358 131.88 621.333 136.696 629.968 136.696C636.411 136.696 641.725 134.039 645.909 128.725C650.094 123.411 652.186 114.278 652.186 101.325C652.186 85.1176 648.699 72.3642 641.725 63.0648C637.009 56.6881 630.997 53.4998 623.691 53.4998Z" fill="black"/>
<path d="M559.775 5.87354H606.903V9.56007H604.313C602.586 9.56007 600.062 10.3239 596.74 11.8517C593.419 13.3794 590.397 15.5714 587.673 18.4277C584.95 21.2839 581.596 25.9336 577.61 32.3767L545.029 83.6892V117.565C545.029 125.868 545.959 131.05 547.819 133.109C550.343 135.898 554.329 137.293 559.775 137.293H564.159V140.98H506.769V137.293H511.552C517.264 137.293 521.316 135.566 523.707 132.112C525.169 129.987 525.899 125.138 525.899 117.565V85.5823L488.835 28.9891C484.451 22.3467 481.462 18.1952 479.867 16.5346C478.34 14.874 475.118 12.8813 470.203 10.5564C468.874 9.89219 466.948 9.56007 464.424 9.56007V5.87354H522.213V9.56007H519.224C516.102 9.56007 513.212 10.2907 510.555 11.7521C507.965 13.2134 506.669 15.4054 506.669 18.328C506.669 20.7193 508.695 25.0369 512.747 31.2807L540.944 74.8216L567.447 33.1738C571.433 26.9299 573.426 22.2803 573.426 19.2248C573.426 17.3649 572.927 15.7043 571.931 14.243C571.001 12.7816 569.639 11.6524 567.846 10.8553C566.052 9.99182 563.362 9.56007 559.775 9.56007V5.87354Z" fill="black"/>
<path d="M403.34 19.7231V49.7136H424.662V56.6881H403.34V115.872C403.34 121.784 404.171 125.769 405.831 127.828C407.558 129.887 409.75 130.917 412.407 130.917C414.599 130.917 416.725 130.253 418.784 128.924C420.843 127.529 422.437 125.503 423.566 122.846H427.452C425.127 129.356 421.839 134.271 417.588 137.593C413.337 140.847 408.953 142.475 404.436 142.475C401.381 142.475 398.392 141.644 395.469 139.984C392.546 138.257 390.388 135.832 388.993 132.71C387.598 129.522 386.9 124.64 386.9 118.064V56.6881H372.453V53.4001C376.106 51.9388 379.826 49.4811 383.612 46.027C387.465 42.5066 390.886 38.3551 393.875 33.5725C395.403 31.0484 397.528 26.432 400.252 19.7231H403.34Z" fill="black"/>
<path d="M341.959 127.828C332.593 135.068 326.715 139.253 324.323 140.382C320.736 142.043 316.917 142.873 312.865 142.873C306.555 142.873 301.341 140.714 297.222 136.397C293.17 132.079 291.145 126.4 291.145 119.359C291.145 114.909 292.141 111.056 294.134 107.801C296.857 103.285 301.573 99.0334 308.282 95.048C315.057 91.0625 326.283 86.2136 341.959 80.5011V76.9142C341.959 67.8141 340.498 61.5703 337.575 58.1827C334.719 54.795 330.534 53.1012 325.021 53.1012C320.836 53.1012 317.515 54.2304 315.057 56.4889C312.533 58.7473 311.271 61.3378 311.271 64.2605L311.47 70.0393C311.47 73.0949 310.673 75.4529 309.079 77.1135C307.551 78.7741 305.525 79.6044 303.001 79.6044C300.544 79.6044 298.518 78.7409 296.923 77.0139C295.396 75.2868 294.632 72.9288 294.632 69.9397C294.632 64.2272 297.554 58.9798 303.4 54.1972C309.245 49.4147 317.448 47.0234 328.01 47.0234C336.114 47.0234 342.756 48.3851 347.937 51.1085C351.856 53.1677 354.746 56.3892 356.605 60.7732C357.801 63.6294 358.399 69.4747 358.399 78.3091V109.296C358.399 117.997 358.565 123.345 358.897 125.337C359.229 127.264 359.761 128.559 360.491 129.223C361.288 129.887 362.185 130.219 363.181 130.219C364.244 130.219 365.174 129.987 365.971 129.522C367.366 128.659 370.056 126.234 374.042 122.249V127.828C366.602 137.792 359.495 142.774 352.72 142.774C349.465 142.774 346.874 141.644 344.948 139.386C343.022 137.128 342.025 133.275 341.959 127.828ZM341.959 121.352V86.5789C331.929 90.5644 325.453 93.3874 322.53 95.048C317.282 97.9706 313.529 101.026 311.271 104.214C309.013 107.403 307.883 110.89 307.883 114.676C307.883 119.459 309.311 123.444 312.168 126.633C315.024 129.755 318.312 131.315 322.032 131.315C327.08 131.315 333.722 127.994 341.959 121.352Z" fill="black"/>
<path d="M219.104 0V66.0537C226.477 57.95 232.323 52.7689 236.64 50.5105C240.958 48.1856 245.275 47.0232 249.593 47.0232C254.774 47.0232 259.224 48.4513 262.944 51.3076C266.664 54.1638 269.421 58.6474 271.214 64.7584C272.476 69.0095 273.107 76.7812 273.107 88.0732V120.355C273.107 126.134 273.572 130.086 274.502 132.212C275.166 133.806 276.295 135.068 277.89 135.998C279.484 136.928 282.406 137.393 286.658 137.393V140.98H241.821V137.393H243.914C248.165 137.393 251.121 136.762 252.781 135.5C254.442 134.171 255.604 132.245 256.269 129.721C256.468 128.658 256.568 125.536 256.568 120.355V88.0732C256.568 78.1096 256.036 71.5669 254.973 68.4449C253.977 65.323 252.35 62.9982 250.091 61.4704C247.833 59.8762 245.109 59.0792 241.921 59.0792C238.666 59.0792 235.279 59.9427 231.758 61.6697C228.238 63.3967 224.02 66.884 219.104 72.1315V120.355C219.104 126.599 219.436 130.485 220.101 132.013C220.831 133.54 222.127 134.836 223.987 135.898C225.913 136.895 229.201 137.393 233.85 137.393V140.98H188.616V137.393C192.668 137.393 195.856 136.762 198.181 135.5C199.509 134.836 200.572 133.574 201.369 131.714C202.166 129.854 202.565 126.068 202.565 120.355V37.7571C202.565 27.3285 202.299 20.9186 201.768 18.5273C201.303 16.1361 199.476 13.6452 199.476 13.6452C199.476 13.6452 195.293 9.55508 188.301 9.55508L188.302 5.85308L214.521 0H219.104Z" fill="black"/>
<path d="M188.312 5.87354V9.56007C184.792 9.56007 181.935 10.1911 179.743 11.4531C177.551 12.7152 175.459 15.0733 173.466 18.5273C172.138 20.8521 170.045 26.3985 167.189 35.1665L129.527 144.069H125.541L94.7538 57.6842L64.1656 144.069H60.5787L20.4254 31.8785C17.4363 23.5091 15.5432 18.5605 14.7461 17.0328C13.4177 14.5087 11.591 12.6488 9.26616 11.4531C7.00775 10.1911 3.91902 9.56007 0 9.56007V5.87354H50.0173V9.56007H47.626C44.1055 9.56007 41.4154 10.3572 39.5555 11.9513C37.6956 13.5455 36.7657 15.4718 36.7657 17.7302C36.7657 20.0551 38.227 25.4022 41.1497 33.7716L67.7525 109.595L90.1706 45.1301L86.1851 33.7716L82.9968 24.7047C81.6019 21.3835 80.0409 18.4609 78.3139 15.9368C77.4504 14.6747 76.3876 13.6119 75.1255 12.7484C73.4649 11.5528 71.8043 10.6893 70.1437 10.1579C68.8817 9.75934 66.889 9.56007 64.1656 9.56007V5.87354H116.773V9.56007H113.186C109.467 9.56007 106.743 10.3572 105.016 11.9513C103.289 13.5455 102.426 15.7043 102.426 18.4277C102.426 21.8153 103.92 27.727 106.909 36.1629L132.815 109.595L158.521 35.1665C161.444 26.9299 162.905 21.2175 162.905 18.0291C162.905 16.5014 162.407 15.0733 161.41 13.7448C160.48 12.4163 159.285 11.4864 157.823 10.955C155.299 10.025 152.011 9.56007 147.959 9.56007V5.87354H188.312Z" fill="black"/>
<path d="M219.104 446.744V512.798C226.477 504.694 232.323 499.513 236.64 497.255C240.958 494.93 245.275 493.767 249.593 493.767C254.774 493.767 259.224 495.195 262.944 498.052C266.664 500.908 269.421 505.392 271.214 511.503C272.476 515.754 273.107 523.525 273.107 534.817V567.099C273.107 572.878 273.572 576.831 274.502 578.956C275.166 580.55 276.295 581.812 277.89 582.742C279.484 583.672 282.406 584.137 286.658 584.137V587.724H241.821V584.137H243.914C248.165 584.137 251.121 583.506 252.781 582.244C254.442 580.916 255.604 578.989 256.269 576.465C256.468 575.402 256.568 572.28 256.568 567.099V534.817C256.568 524.854 256.036 518.311 254.973 515.189C253.977 512.067 252.35 509.742 250.091 508.215C247.833 506.62 245.109 505.823 241.921 505.823C238.666 505.823 235.279 506.687 231.758 508.414C228.238 510.141 224.02 513.628 219.104 518.876V567.099C219.104 573.343 219.436 577.229 220.101 578.757C220.831 580.285 222.127 581.58 223.987 582.643C225.913 583.639 229.201 584.137 233.85 584.137V587.724H188.616V584.137C192.668 584.137 195.856 583.506 198.181 582.244C199.509 581.58 200.572 580.318 201.369 578.458C202.166 576.598 202.565 572.812 202.565 567.099V484.501C202.565 474.073 202.299 467.663 201.768 465.271C201.303 462.88 199.476 460.389 199.476 460.389C199.476 460.389 195.293 456.299 188.301 456.299L188.302 452.597L214.521 446.744H219.104Z" fill="black"/>
<path d="M188.312 452.618V456.305C184.792 456.305 181.935 456.936 179.743 458.198C177.551 459.46 175.459 461.818 173.466 465.272C172.138 467.597 170.045 473.143 167.189 481.911L129.527 590.813H125.541L94.7538 504.429L64.1656 590.813H60.5787L20.4254 478.623C17.4363 470.254 15.5432 465.305 14.7461 463.777C13.4177 461.253 11.591 459.393 9.26616 458.198C7.00775 456.936 3.91902 456.305 0 456.305V452.618H50.0173V456.305H47.626C44.1055 456.305 41.4154 457.102 39.5555 458.696C37.6956 460.29 36.7657 462.216 36.7657 464.475C36.7657 466.8 38.227 472.147 41.1497 480.516L67.7525 556.339L90.1706 491.875L86.1851 480.516L82.9968 471.449C81.6019 468.128 80.0409 465.206 78.3139 462.681C77.4504 461.419 76.3876 460.357 75.1255 459.493C73.4649 458.297 71.8043 457.434 70.1437 456.903C68.8817 456.504 66.889 456.305 64.1656 456.305V452.618H116.773V456.305H113.186C109.467 456.305 106.743 457.102 105.016 458.696C103.289 460.29 102.426 462.449 102.426 465.172C102.426 468.56 103.92 474.472 106.909 482.907L132.815 556.339L158.521 481.911C161.444 473.675 162.905 467.962 162.905 464.774C162.905 463.246 162.407 461.818 161.41 460.489C160.48 459.161 159.285 458.231 157.823 457.7C155.299 456.77 152.011 456.305 147.959 456.305V452.618H188.312Z" fill="black"/>
</svg>
