<svg width="771" height="747" viewBox="0 0 771 747" fill="none" xmlns="http://www.w3.org/2000/svg">
<path d="M530.574 711.779H526.489C526.954 703.41 527.984 696.502 529.578 691.055C531.238 685.542 534.626 677.903 539.741 668.139C543.726 660.633 546.317 654.887 547.512 650.902C548.708 646.85 549.306 642.765 549.306 638.647C549.306 630.211 547.047 623.502 542.53 618.52C538.08 613.538 532.6 611.047 526.091 611.047C520.312 611.047 515.762 612.409 512.44 615.132C509.119 617.856 507.459 620.812 507.459 624C507.459 626.458 508.455 629.48 510.448 633.067C512.44 636.654 513.437 639.377 513.437 641.237C513.437 643.628 512.673 645.654 511.145 647.315C509.617 648.909 507.757 649.706 505.565 649.706C502.776 649.706 500.218 648.344 497.893 645.621C495.635 642.831 494.506 638.979 494.506 634.063C494.506 626.557 497.727 619.915 504.171 614.136C510.614 608.357 519.348 605.468 530.375 605.468C544.058 605.468 554.121 609.453 560.565 617.424C565.347 623.269 567.738 629.746 567.738 636.853C567.738 641.702 566.642 646.684 564.45 651.798C562.325 656.913 558.24 662.924 552.195 669.833C542.564 680.726 536.652 688.465 534.46 693.048C532.334 697.565 531.039 703.809 530.574 711.779ZM529.179 724.134C532.301 724.134 534.925 725.23 537.05 727.422C539.242 729.548 540.338 732.171 540.338 735.293C540.338 738.349 539.242 740.973 537.05 743.165C534.858 745.29 532.235 746.353 529.179 746.353C526.124 746.353 523.5 745.29 521.308 743.165C519.182 740.973 518.12 738.349 518.12 735.293C518.12 732.171 519.182 729.548 521.308 727.422C523.5 725.23 526.124 724.134 529.179 724.134Z" fill="black"/>
<path d="M466.508 622.406V652.397H487.83V659.371H466.508V718.555C466.508 724.467 467.339 728.452 468.999 730.511C470.726 732.57 472.918 733.6 475.575 733.6C477.767 733.6 479.893 732.936 481.952 731.607C484.011 730.212 485.605 728.186 486.734 725.529H490.62C488.295 732.039 485.007 736.954 480.756 740.276C476.505 743.53 472.121 745.158 467.604 745.158C464.549 745.158 461.56 744.327 458.637 742.667C455.714 740.94 453.556 738.515 452.161 735.393C450.766 732.205 450.068 727.323 450.068 720.747V659.371H435.621V656.083C439.274 654.622 442.994 652.164 446.78 648.71C450.633 645.19 454.054 641.038 457.043 636.256C458.571 633.732 460.696 629.115 463.42 622.406H466.508Z" fill="black"/>
<path d="M367.762 686.772C367.695 700.322 370.983 710.95 377.626 718.655C384.268 726.36 392.073 730.213 401.04 730.213C407.018 730.213 412.199 728.586 416.583 725.331C421.034 722.01 424.753 716.364 427.742 708.393L430.831 710.385C429.436 719.485 425.384 727.788 418.676 735.294C411.967 742.734 403.564 746.454 393.468 746.454C382.508 746.454 373.109 742.202 365.271 733.7C357.499 725.131 353.613 713.64 353.613 699.226C353.613 683.616 357.599 671.461 365.57 662.759C373.607 653.991 383.67 649.607 395.759 649.607C405.989 649.607 414.391 652.995 420.967 659.77C427.543 666.479 430.831 675.48 430.831 686.772H367.762ZM367.762 680.993H410.007C409.675 675.147 408.978 671.029 407.915 668.638C406.254 664.918 403.763 661.995 400.442 659.87C397.187 657.744 393.767 656.682 390.18 656.682C384.667 656.682 379.718 658.84 375.334 663.158C371.016 667.409 368.492 673.354 367.762 680.993Z" fill="black"/>
<path d="M327.903 605.468L331.39 648.112H327.903C324.382 637.484 319.832 629.48 314.253 624.1C306.215 616.328 295.886 612.442 283.266 612.442C266.062 612.442 252.976 619.251 244.009 632.868C236.503 644.359 232.75 658.042 232.75 673.918C232.75 686.804 235.241 698.561 240.223 709.189C245.205 719.817 251.714 727.622 259.752 732.603C267.855 737.519 276.158 739.976 284.661 739.976C289.642 739.976 294.458 739.345 299.108 738.083C303.758 736.821 308.241 734.961 312.559 732.504V693.446C312.559 686.671 312.027 682.254 310.965 680.195C309.968 678.069 308.374 676.475 306.182 675.412C304.056 674.283 300.27 673.718 294.823 673.718V669.932H347.132V673.718H344.641C339.46 673.718 335.907 675.445 333.98 678.899C332.652 681.357 331.988 686.206 331.988 693.446V734.795C324.349 738.914 316.81 741.936 309.37 743.862C301.931 745.788 293.661 746.752 284.561 746.752C258.456 746.752 238.629 738.382 225.078 721.643C214.915 709.089 209.834 694.609 209.834 678.202C209.834 666.312 212.69 654.92 218.403 644.027C225.178 631.074 234.477 621.111 246.301 614.136C256.198 608.357 267.889 605.468 281.373 605.468C286.288 605.468 290.738 605.866 294.724 606.663C298.776 607.46 304.488 609.221 311.861 611.944C315.581 613.339 318.072 614.036 319.334 614.036C320.596 614.036 321.659 613.472 322.522 612.343C323.452 611.147 324.017 608.855 324.216 605.468H327.903Z" fill="black"/>
<path d="M754.882 496.458V551.756C754.882 562.317 755.115 568.794 755.58 571.185C756.111 573.51 756.908 575.137 757.971 576.067C759.1 576.997 760.396 577.462 761.857 577.462C763.916 577.462 766.241 576.897 768.831 575.768L770.226 579.256L742.926 590.514H738.442V571.185C730.604 579.687 724.626 585.034 720.508 587.226C716.39 589.418 712.039 590.514 707.456 590.514C702.341 590.514 697.891 589.053 694.104 586.13C690.385 583.141 687.794 579.322 686.333 574.672C684.871 570.023 684.141 563.447 684.141 554.944V514.193C684.141 509.876 683.676 506.887 682.746 505.226C681.816 503.565 680.421 502.303 678.561 501.44C676.768 500.51 673.48 500.078 668.697 500.145V496.458H700.68V557.535C700.68 566.037 702.142 571.617 705.064 574.274C708.053 576.931 711.64 578.259 715.825 578.259C718.681 578.259 721.903 577.362 725.49 575.569C729.143 573.776 733.461 570.355 738.442 565.306V513.595C738.442 508.414 737.479 504.927 735.553 503.134C733.693 501.274 729.774 500.277 723.796 500.145V496.458H754.882Z" fill="black"/>
<path d="M621.779 493.768C635.596 493.768 646.688 499.015 655.058 509.51C662.165 518.477 665.719 528.773 665.719 540.397C665.719 548.567 663.759 556.837 659.84 565.207C655.921 573.576 650.508 579.886 643.6 584.137C636.758 588.389 629.119 590.514 620.683 590.514C606.934 590.514 596.007 585.034 587.903 574.074C581.061 564.841 577.641 554.479 577.641 542.988C577.641 534.618 579.7 526.315 583.818 518.079C588.003 509.776 593.483 503.665 600.258 499.746C607.033 495.76 614.207 493.768 621.779 493.768ZM618.691 500.244C615.17 500.244 611.616 501.307 608.03 503.432C604.509 505.491 601.653 509.145 599.461 514.392C597.269 519.64 596.173 526.382 596.173 534.618C596.173 547.903 598.797 559.361 604.044 568.993C609.358 578.624 616.333 583.44 624.968 583.44C631.411 583.44 636.725 580.783 640.909 575.469C645.094 570.155 647.186 561.022 647.186 548.069C647.186 531.862 643.699 519.108 636.725 509.809C632.009 503.432 625.997 500.244 618.691 500.244Z" fill="black"/>
<path d="M557.775 452.618H604.903V456.305H602.313C600.586 456.305 598.062 457.069 594.74 458.596C591.419 460.124 588.397 462.316 585.673 465.172C582.95 468.029 579.596 472.678 575.61 479.121L543.029 530.434V564.31C543.029 572.613 543.959 577.794 545.819 579.853C548.343 582.643 552.329 584.038 557.775 584.038H562.159V587.725H504.769V584.038H509.552C515.264 584.038 519.316 582.311 521.707 578.857C523.169 576.731 523.899 571.882 523.899 564.31V532.327L486.835 475.734C482.451 469.091 479.462 464.94 477.867 463.279C476.34 461.619 473.118 459.626 468.203 457.301C466.874 456.637 464.948 456.305 462.424 456.305V452.618H520.213V456.305H517.224C514.102 456.305 511.212 457.035 508.555 458.497C505.965 459.958 504.669 462.15 504.669 465.073C504.669 467.464 506.695 471.782 510.747 478.025L538.944 521.566L565.447 479.918C569.433 473.675 571.426 469.025 571.426 465.969C571.426 464.11 570.927 462.449 569.931 460.988C569.001 459.526 567.639 458.397 565.846 457.6C564.052 456.736 561.362 456.305 557.775 456.305V452.618Z" fill="black"/>
<path d="M404.34 466.467V496.457H425.662V503.432H404.34V562.615C404.34 568.527 405.171 572.513 406.831 574.572C408.558 576.631 410.75 577.661 413.407 577.661C415.599 577.661 417.725 576.996 419.784 575.668C421.843 574.273 423.437 572.247 424.566 569.59H428.452C426.127 576.1 422.839 581.015 418.588 584.336C414.337 587.591 409.953 589.218 405.436 589.218C402.381 589.218 399.392 588.388 396.469 586.727C393.546 585 391.388 582.576 389.993 579.454C388.598 576.266 387.9 571.383 387.9 564.807V503.432H373.453V500.144C377.106 498.682 380.826 496.225 384.612 492.771C388.465 489.25 391.886 485.099 394.875 480.316C396.403 477.792 398.528 473.176 401.252 466.467H404.34Z" fill="black"/>
<path d="M341.959 574.572C332.593 581.813 326.715 585.997 324.323 587.126C320.736 588.787 316.917 589.617 312.865 589.617C306.555 589.617 301.341 587.459 297.222 583.141C293.17 578.823 291.145 573.144 291.145 566.103C291.145 561.653 292.141 557.8 294.134 554.546C296.857 550.029 301.573 545.778 308.282 541.792C315.057 537.807 326.283 532.958 341.959 527.245V523.658C341.959 514.558 340.498 508.314 337.575 504.927C334.719 501.539 330.534 499.845 325.021 499.845C320.836 499.845 317.515 500.975 315.057 503.233C312.533 505.491 311.271 508.082 311.271 511.005L311.47 516.784C311.47 519.839 310.673 522.197 309.079 523.858C307.551 525.518 305.525 526.349 303.001 526.349C300.544 526.349 298.518 525.485 296.923 523.758C295.396 522.031 294.632 519.673 294.632 516.684C294.632 510.971 297.554 505.724 303.4 500.941C309.245 496.159 317.448 493.768 328.01 493.768C336.114 493.768 342.756 495.129 347.937 497.853C351.856 499.912 354.746 503.133 356.605 507.517C357.801 510.374 358.399 516.219 358.399 525.053V556.04C358.399 564.742 358.565 570.089 358.897 572.081C359.229 574.008 359.76 575.303 360.491 575.967C361.288 576.632 362.185 576.964 363.181 576.964C364.244 576.964 365.174 576.731 365.971 576.266C367.366 575.403 370.056 572.978 374.042 568.993V574.572C366.602 584.536 359.495 589.518 352.72 589.518C349.465 589.518 346.874 588.389 344.948 586.13C343.022 583.872 342.025 580.019 341.959 574.572ZM341.959 568.096V533.323C331.929 537.308 325.453 540.132 322.53 541.792C317.282 544.715 313.529 547.77 311.271 550.959C309.013 554.147 307.883 557.634 307.883 561.42C307.883 566.203 309.311 570.188 312.168 573.377C315.024 576.499 318.312 578.06 322.032 578.06C327.08 578.06 333.722 574.738 341.959 568.096Z" fill="black"/>
<path d="M446.876 350.473V381.559H443.588C441.064 371.795 437.809 365.152 433.824 361.632C429.905 358.111 424.89 356.351 418.779 356.351C414.129 356.351 410.376 357.58 407.52 360.038C404.664 362.495 403.236 365.219 403.236 368.208C403.236 371.928 404.298 375.116 406.424 377.773C408.483 380.496 412.668 383.386 418.978 386.441L433.525 393.515C447.009 400.091 453.751 408.76 453.751 419.52C453.751 427.823 450.596 434.532 444.286 439.647C438.042 444.695 431.034 447.219 423.262 447.219C417.683 447.219 411.306 446.223 404.132 444.23C401.94 443.566 400.147 443.234 398.752 443.234C397.224 443.234 396.029 444.097 395.165 445.824H391.877V413.243H395.165C397.025 422.543 400.579 429.55 405.826 434.267C411.074 438.983 416.952 441.341 423.462 441.341C428.045 441.341 431.765 440.012 434.621 437.355C437.544 434.632 439.005 431.377 439.005 427.591C439.005 423.008 437.377 419.155 434.123 416.033C430.934 412.911 424.524 408.959 414.893 404.176C405.262 399.394 398.951 395.076 395.962 391.224C392.973 387.438 391.479 382.655 391.479 376.876C391.479 369.37 394.036 363.093 399.15 358.045C404.332 352.997 411.007 350.473 419.177 350.473C422.764 350.473 427.115 351.237 432.23 352.764C435.617 353.761 437.876 354.259 439.005 354.259C440.068 354.259 440.898 354.026 441.496 353.561C442.094 353.096 442.791 352.067 443.588 350.473H446.876Z" fill="black"/>
<path d="M380.613 440.742V444.429H322.725V440.742H327.507C333.087 440.742 337.139 439.115 339.663 435.86C341.257 433.734 342.054 428.62 342.054 420.516V333.235C342.054 326.393 341.622 321.876 340.759 319.684C340.094 318.024 338.733 316.596 336.674 315.4C333.751 313.806 330.695 313.009 327.507 313.009H322.725V309.322H380.613V313.009H375.731C370.218 313.009 366.199 314.636 363.675 317.891C362.014 320.017 361.184 325.131 361.184 333.235V420.516C361.184 427.358 361.616 431.875 362.479 434.067C363.144 435.727 364.538 437.155 366.664 438.351C369.52 439.945 372.543 440.742 375.731 440.742H380.613Z" fill="black"/>
<path d="M435.562 199.33H478.107V203.017H476.015C473.026 203.017 470.767 203.681 469.239 205.009C467.778 206.271 467.047 207.866 467.047 209.792C467.047 212.382 468.143 215.969 470.335 220.553L492.554 266.584L512.98 216.169C514.109 213.445 514.673 210.755 514.673 208.098C514.673 206.902 514.441 206.006 513.976 205.408C513.445 204.677 512.614 204.113 511.485 203.714C510.356 203.249 508.363 203.017 505.507 203.017V199.33H535.198V203.017C532.741 203.282 530.848 203.814 529.519 204.611C528.191 205.408 526.729 206.902 525.135 209.094C524.537 210.024 523.408 212.582 521.748 216.766L484.583 307.834C480.996 316.668 476.28 323.344 470.435 327.861C464.656 332.377 459.077 334.636 453.696 334.636C449.777 334.636 446.556 333.507 444.032 331.248C441.507 328.99 440.245 326.399 440.245 323.477C440.245 320.687 441.142 318.428 442.936 316.701C444.795 315.041 447.32 314.21 450.508 314.21C452.7 314.21 455.689 314.941 459.475 316.402C462.132 317.399 463.793 317.897 464.457 317.897C466.45 317.897 468.608 316.867 470.933 314.808C473.325 312.749 475.716 308.764 478.107 302.852L484.583 287.01L451.803 218.161C450.807 216.102 449.213 213.545 447.021 210.489C445.36 208.164 443.998 206.604 442.936 205.806C441.408 204.744 438.95 203.814 435.562 203.017V199.33Z" fill="black"/>
<path d="M407.867 277.445C398.501 284.686 392.623 288.87 390.232 290C386.645 291.66 382.825 292.49 378.773 292.49C372.463 292.49 367.249 290.332 363.131 286.014C359.079 281.697 357.053 276.017 357.053 268.976C357.053 264.526 358.049 260.673 360.042 257.419C362.765 252.902 367.481 248.651 374.19 244.665C380.965 240.68 392.191 235.831 407.867 230.118V226.531C407.867 217.431 406.406 211.187 403.483 207.8C400.627 204.412 396.442 202.718 390.929 202.718C386.744 202.718 383.423 203.848 380.965 206.106C378.441 208.364 377.179 210.955 377.179 213.878L377.378 219.657C377.378 222.712 376.581 225.07 374.987 226.731C373.459 228.391 371.434 229.222 368.909 229.222C366.452 229.222 364.426 228.358 362.832 226.631C361.304 224.904 360.54 222.546 360.54 219.557C360.54 213.844 363.463 208.597 369.308 203.814C375.153 199.032 383.357 196.641 393.918 196.641C402.022 196.641 408.664 198.002 413.845 200.726C417.764 202.785 420.654 206.006 422.514 210.39C423.709 213.247 424.307 219.092 424.307 227.926V258.913C424.307 267.615 424.473 272.962 424.805 274.955C425.137 276.881 425.669 278.176 426.399 278.84C427.196 279.505 428.093 279.837 429.09 279.837C430.152 279.837 431.082 279.604 431.879 279.139C433.274 278.276 435.964 275.851 439.95 271.866V277.445C432.51 287.409 425.403 292.391 418.628 292.391C415.373 292.391 412.782 291.262 410.856 289.003C408.93 286.745 407.934 282.892 407.867 277.445ZM407.867 270.969V236.196C397.837 240.182 391.361 243.005 388.438 244.665C383.191 247.588 379.438 250.643 377.179 253.832C374.921 257.02 373.792 260.507 373.792 264.293C373.792 269.076 375.22 273.061 378.076 276.25C380.932 279.372 384.22 280.933 387.94 280.933C392.988 280.933 399.631 277.611 407.867 270.969Z" fill="black"/>
<path d="M334.834 152.402V199.132H331.148C329.952 190.164 327.793 183.024 324.671 177.71C321.616 172.396 317.232 168.178 311.519 165.056C305.807 161.934 299.895 160.373 293.784 160.373C286.876 160.373 281.164 162.499 276.647 166.75C272.13 170.935 269.871 175.717 269.871 181.097C269.871 185.216 271.3 188.969 274.156 192.356C278.274 197.338 288.072 203.981 303.548 212.284C316.169 219.059 324.771 224.273 329.354 227.926C334.004 231.513 337.557 235.764 340.015 240.68C342.539 245.595 343.801 250.743 343.801 256.123C343.801 266.353 339.816 275.187 331.845 282.627C323.941 290 313.744 293.686 301.257 293.686C297.338 293.686 293.651 293.387 290.197 292.789C288.138 292.457 283.854 291.262 277.344 289.203C270.901 287.077 266.816 286.014 265.089 286.014C263.428 286.014 262.1 286.512 261.103 287.509C260.174 288.505 259.476 290.564 259.011 293.686H255.325V247.355H259.011C260.738 257.053 263.063 264.327 265.986 269.176C268.908 273.958 273.359 277.944 279.337 281.132C285.381 284.32 291.991 285.915 299.164 285.915C307.467 285.915 314.01 283.723 318.793 279.339C323.642 274.955 326.066 269.774 326.066 263.795C326.066 260.474 325.136 257.12 323.276 253.732C321.483 250.345 318.66 247.189 314.807 244.267C312.217 242.274 305.143 238.056 293.585 231.613C282.027 225.103 273.79 219.922 268.875 216.07C264.026 212.217 260.34 207.966 257.815 203.316C255.291 198.667 254.029 193.552 254.029 187.972C254.029 178.274 257.749 169.938 265.189 162.964C272.628 155.923 282.093 152.402 293.585 152.402C300.759 152.402 308.364 154.163 316.401 157.683C320.121 159.344 322.745 160.174 324.273 160.174C326 160.174 327.395 159.676 328.457 158.679C329.587 157.617 330.483 155.524 331.148 152.402H334.834Z" fill="black"/>
<path d="M754.882 49.7139V105.012C754.882 115.573 755.115 122.05 755.58 124.441C756.111 126.766 756.908 128.393 757.971 129.323C759.1 130.253 760.396 130.718 761.857 130.718C763.916 130.718 766.241 130.153 768.831 129.024L770.226 132.511L742.926 143.77H738.442V124.441C730.604 132.943 724.626 138.29 720.508 140.482C716.39 142.674 712.039 143.77 707.456 143.77C702.341 143.77 697.891 142.309 694.104 139.386C690.385 136.397 687.794 132.578 686.333 127.928C684.871 123.278 684.141 116.702 684.141 108.2V67.4491C684.141 63.1315 683.676 60.1424 682.746 58.4818C681.816 56.8212 680.421 55.5592 678.561 54.6957C676.768 53.7657 673.48 53.334 668.697 53.4004V49.7139H700.68V110.791C700.68 119.293 702.142 124.873 705.064 127.53C708.053 130.187 711.64 131.515 715.825 131.515C718.681 131.515 721.903 130.618 725.49 128.825C729.143 127.031 733.461 123.611 738.442 118.562V66.8513C738.442 61.6702 737.479 58.1829 735.553 56.3895C733.693 54.5296 729.774 53.5332 723.796 53.4004V49.7139H754.882Z" fill="black"/>
<path d="M621.779 47.0234C635.596 47.0234 646.688 52.2709 655.058 62.7659C662.165 71.7332 665.719 82.0289 665.719 93.6531C665.719 101.823 663.759 110.093 659.84 118.462C655.921 126.832 650.508 133.142 643.6 137.393C636.758 141.644 629.119 143.77 620.683 143.77C606.934 143.77 596.007 138.29 587.903 127.33C581.061 118.097 577.641 107.735 577.641 96.2436C577.641 87.8742 579.7 79.5712 583.818 71.3346C588.003 63.0316 593.483 56.9206 600.258 53.0016C607.033 49.0162 614.207 47.0234 621.779 47.0234ZM618.691 53.4998C615.17 53.4998 611.616 54.5626 608.03 56.6881C604.509 58.7473 601.653 62.4006 599.461 67.6481C597.269 72.8956 596.173 79.6376 596.173 87.8742C596.173 101.159 598.797 112.617 604.044 122.249C609.358 131.88 616.333 136.696 624.968 136.696C631.411 136.696 636.725 134.039 640.909 128.725C645.094 123.411 647.186 114.278 647.186 101.325C647.186 85.1176 643.699 72.3642 636.725 63.0648C632.009 56.6881 625.997 53.4998 618.691 53.4998Z" fill="black"/>
<path d="M557.775 5.87354H604.903V9.56007H602.313C600.586 9.56007 598.062 10.3239 594.74 11.8517C591.419 13.3794 588.397 15.5714 585.673 18.4277C582.95 21.2839 579.596 25.9336 575.61 32.3767L543.029 83.6892V117.565C543.029 125.868 543.959 131.05 545.819 133.109C548.343 135.898 552.329 137.293 557.775 137.293H562.159V140.98H504.769V137.293H509.552C515.264 137.293 519.316 135.566 521.707 132.112C523.169 129.987 523.899 125.138 523.899 117.565V85.5823L486.835 28.9891C482.451 22.3467 479.462 18.1952 477.867 16.5346C476.34 14.874 473.118 12.8813 468.203 10.5564C466.874 9.89219 464.948 9.56007 462.424 9.56007V5.87354H520.213V9.56007H517.224C514.102 9.56007 511.212 10.2907 508.555 11.7521C505.965 13.2134 504.669 15.4054 504.669 18.328C504.669 20.7193 506.695 25.0369 510.747 31.2807L538.944 74.8216L565.447 33.1738C569.433 26.9299 571.426 22.2803 571.426 19.2248C571.426 17.3649 570.927 15.7043 569.931 14.243C569.001 12.7816 567.639 11.6524 565.846 10.8553C564.052 9.99182 561.362 9.56007 557.775 9.56007V5.87354Z" fill="black"/>
<path d="M404.34 19.7231V49.7136H425.662V56.6881H404.34V115.872C404.34 121.784 405.171 125.769 406.831 127.828C408.558 129.887 410.75 130.917 413.407 130.917C415.599 130.917 417.725 130.253 419.784 128.924C421.843 127.529 423.437 125.503 424.566 122.846H428.452C426.127 129.356 422.839 134.271 418.588 137.593C414.337 140.847 409.953 142.475 405.436 142.475C402.381 142.475 399.392 141.644 396.469 139.984C393.546 138.257 391.388 135.832 389.993 132.71C388.598 129.522 387.9 124.64 387.9 118.064V56.6881H373.453V53.4001C377.106 51.9388 380.826 49.4811 384.612 46.027C388.465 42.5066 391.886 38.3551 394.875 33.5725C396.403 31.0484 398.528 26.432 401.252 19.7231H404.34Z" fill="black"/>
<path d="M341.959 127.828C332.593 135.068 326.715 139.253 324.323 140.382C320.736 142.043 316.917 142.873 312.865 142.873C306.555 142.873 301.341 140.714 297.222 136.397C293.17 132.079 291.145 126.4 291.145 119.359C291.145 114.909 292.141 111.056 294.134 107.801C296.857 103.285 301.573 99.0334 308.282 95.048C315.057 91.0625 326.283 86.2136 341.959 80.5011V76.9142C341.959 67.8141 340.498 61.5703 337.575 58.1827C334.719 54.795 330.534 53.1012 325.021 53.1012C320.836 53.1012 317.515 54.2304 315.057 56.4889C312.533 58.7473 311.271 61.3378 311.271 64.2605L311.47 70.0393C311.47 73.0949 310.673 75.4529 309.079 77.1135C307.551 78.7741 305.525 79.6044 303.001 79.6044C300.544 79.6044 298.518 78.7409 296.923 77.0139C295.396 75.2868 294.632 72.9288 294.632 69.9397C294.632 64.2272 297.554 58.9798 303.4 54.1972C309.245 49.4147 317.448 47.0234 328.01 47.0234C336.114 47.0234 342.756 48.3851 347.937 51.1085C351.856 53.1677 354.746 56.3892 356.605 60.7732C357.801 63.6294 358.399 69.4747 358.399 78.3091V109.296C358.399 117.997 358.565 123.345 358.897 125.337C359.229 127.264 359.76 128.559 360.491 129.223C361.288 129.887 362.185 130.219 363.181 130.219C364.244 130.219 365.174 129.987 365.971 129.522C367.366 128.659 370.056 126.234 374.042 122.249V127.828C366.602 137.792 359.495 142.774 352.72 142.774C349.465 142.774 346.874 141.644 344.948 139.386C343.022 137.128 342.025 133.275 341.959 127.828ZM341.959 121.352V86.5789C331.929 90.5644 325.453 93.3874 322.53 95.048C317.282 97.9706 313.529 101.026 311.271 104.214C309.013 107.403 307.883 110.89 307.883 114.676C307.883 119.459 309.311 123.444 312.168 126.633C315.024 129.755 318.312 131.315 322.032 131.315C327.08 131.315 333.722 127.994 341.959 121.352Z" fill="black"/>
<path d="M217.104 0V66.0537C224.477 57.95 230.323 52.7689 234.64 50.5105C238.958 48.1856 243.275 47.0232 247.593 47.0232C252.774 47.0232 257.224 48.4513 260.944 51.3076C264.664 54.1638 267.421 58.6474 269.214 64.7584C270.476 69.0096 271.107 76.7812 271.107 88.0732V120.355C271.107 126.134 271.572 130.086 272.502 132.212C273.166 133.806 274.295 135.068 275.89 135.998C277.484 136.928 280.406 137.393 284.658 137.393V140.98H239.821V137.393H241.914C246.165 137.393 249.121 136.762 250.781 135.5C252.442 134.171 253.604 132.245 254.269 129.721C254.468 128.658 254.568 125.536 254.568 120.355V88.0732C254.568 78.1096 254.036 71.5669 252.973 68.4449C251.977 65.323 250.35 62.9982 248.091 61.4704C245.833 59.8762 243.109 59.0792 239.921 59.0792C236.666 59.0792 233.279 59.9427 229.758 61.6697C226.238 63.3967 222.02 66.884 217.104 72.1315V120.355C217.104 126.599 217.436 130.485 218.101 132.013C218.831 133.54 220.127 134.836 221.987 135.898C223.913 136.895 227.201 137.393 231.85 137.393V140.98H186.616V137.393C190.668 137.393 193.856 136.762 196.181 135.5C197.509 134.836 198.572 133.574 199.369 131.714C200.166 129.854 200.565 126.068 200.565 120.355V37.7571C200.565 27.3285 200.299 20.9186 199.768 18.5273C199.303 16.1361 198.277 14.5107 197.476 13.6452C196.675 12.7796 193.293 9.55508 186.301 9.55508L186.302 5.87296L212.521 0H217.104Z" fill="black"/>
<path d="M188.312 5.87354V9.56007C184.792 9.56007 181.935 10.1911 179.743 11.4531C177.551 12.7152 175.459 15.0733 173.466 18.5273C172.138 20.8521 170.045 26.3985 167.189 35.1665L129.527 144.069H125.541L94.7538 57.6842L64.1656 144.069H60.5787L20.4254 31.8785C17.4363 23.5091 15.5432 18.5605 14.7461 17.0328C13.4177 14.5087 11.591 12.6488 9.26616 11.4531C7.00775 10.1911 3.91902 9.56007 0 9.56007V5.87354H50.0173V9.56007H47.626C44.1055 9.56007 41.4154 10.3572 39.5555 11.9513C37.6956 13.5455 36.7657 15.4718 36.7657 17.7302C36.7657 20.0551 38.227 25.4022 41.1497 33.7716L67.7525 109.595L90.1706 45.1301L86.1851 33.7716L82.9968 24.7047C81.6019 21.3835 80.0409 18.4609 78.3139 15.9368C77.4504 14.6747 76.3876 13.6119 75.1255 12.7484C73.4649 11.5528 71.8043 10.6893 70.1437 10.1579C68.8817 9.75934 66.889 9.56007 64.1656 9.56007V5.87354H116.773V9.56007H113.186C109.467 9.56007 106.743 10.3572 105.016 11.9513C103.289 13.5455 102.426 15.7043 102.426 18.4277C102.426 21.8153 103.92 27.727 106.909 36.1629L132.815 109.595L158.521 35.1665C161.443 26.9299 162.905 21.2175 162.905 18.0291C162.905 16.5014 162.407 15.0733 161.41 13.7448C160.48 12.4163 159.285 11.4864 157.823 10.955C155.299 10.025 152.011 9.56007 147.959 9.56007V5.87354H188.312Z" fill="black"/>
<path d="M217.104 446.744V512.798C224.477 504.694 230.323 499.513 234.64 497.255C238.958 494.93 243.275 493.767 247.593 493.767C252.774 493.767 257.224 495.195 260.944 498.052C264.664 500.908 267.421 505.392 269.214 511.503C270.476 515.754 271.107 523.525 271.107 534.817V567.099C271.107 572.878 271.572 576.831 272.502 578.956C273.166 580.55 274.295 581.812 275.89 582.742C277.484 583.672 280.406 584.137 284.658 584.137V587.724H239.821V584.137H241.914C246.165 584.137 249.121 583.506 250.781 582.244C252.442 580.916 253.604 578.989 254.269 576.465C254.468 575.402 254.568 572.28 254.568 567.099V534.817C254.568 524.854 254.036 518.311 252.973 515.189C251.977 512.067 250.35 509.742 248.091 508.215C245.833 506.62 243.109 505.823 239.921 505.823C236.666 505.823 233.279 506.687 229.758 508.414C226.238 510.141 222.02 513.628 217.104 518.876V567.099C217.104 573.343 217.436 577.229 218.101 578.757C218.831 580.285 220.127 581.58 221.987 582.643C223.913 583.639 227.201 584.137 231.85 584.137V587.724H186.616V584.137C190.668 584.137 193.856 583.506 196.181 582.244C197.509 581.58 198.572 580.318 199.369 578.458C200.166 576.598 200.565 572.812 200.565 567.099V484.501C200.565 474.073 200.299 467.663 199.768 465.271C199.303 462.88 198.277 461.255 197.476 460.389C196.675 459.524 193.293 456.299 186.301 456.299L186.302 452.617L212.521 446.744H217.104Z" fill="black"/>
<path d="M188.312 452.618V456.305C184.792 456.305 181.935 456.936 179.743 458.198C177.551 459.46 175.459 461.818 173.466 465.272C172.138 467.597 170.045 473.143 167.189 481.911L129.527 590.813H125.541L94.7538 504.429L64.1656 590.813H60.5787L20.4254 478.623C17.4363 470.254 15.5432 465.305 14.7461 463.777C13.4177 461.253 11.591 459.393 9.26616 458.198C7.00775 456.936 3.91902 456.305 0 456.305V452.618H50.0173V456.305H47.626C44.1055 456.305 41.4154 457.102 39.5555 458.696C37.6956 460.29 36.7657 462.216 36.7657 464.475C36.7657 466.8 38.227 472.147 41.1497 480.516L67.7525 556.339L90.1706 491.875L86.1851 480.516L82.9968 471.449C81.6019 468.128 80.0409 465.206 78.3139 462.681C77.4504 461.419 76.3876 460.357 75.1255 459.493C73.4649 458.297 71.8043 457.434 70.1437 456.903C68.8817 456.504 66.889 456.305 64.1656 456.305V452.618H116.773V456.305H113.186C109.467 456.305 106.743 457.102 105.016 458.696C103.289 460.29 102.426 462.449 102.426 465.172C102.426 468.56 103.92 474.472 106.909 482.907L132.815 556.339L158.521 481.911C161.443 473.675 162.905 467.962 162.905 464.774C162.905 463.246 162.407 461.818 161.41 460.489C160.48 459.161 159.285 458.231 157.823 457.7C155.299 456.77 152.011 456.305 147.959 456.305V452.618H188.312Z" fill="black"/>
</svg>
