<svg width="1843" height="804" viewBox="0 0 1843 804" fill="none" xmlns="http://www.w3.org/2000/svg">
<path d="M1169.24 745.583H1162.49C1163.26 731.752 1164.96 720.336 1167.6 711.334C1170.34 702.223 1175.94 689.599 1184.39 673.463C1190.98 661.058 1195.26 651.563 1197.24 644.977C1199.21 638.281 1200.2 631.53 1200.2 624.724C1200.2 610.783 1196.47 599.696 1189 591.463C1181.65 583.23 1172.59 579.113 1161.83 579.113C1152.28 579.113 1144.76 581.364 1139.28 585.864C1133.79 590.365 1131.04 595.25 1131.04 600.519C1131.04 604.581 1132.69 609.575 1135.98 615.503C1139.28 621.431 1140.92 625.931 1140.92 629.005C1140.92 632.957 1139.66 636.305 1137.13 639.049C1134.61 641.684 1131.54 643.001 1127.91 643.001C1123.3 643.001 1119.08 640.751 1115.24 636.25C1111.5 631.64 1109.64 625.273 1109.64 617.15C1109.64 604.745 1114.96 593.768 1125.61 584.218C1136.26 574.668 1150.69 569.893 1168.91 569.893C1191.53 569.893 1208.16 576.479 1218.81 589.652C1226.71 599.312 1230.66 610.014 1230.66 621.76C1230.66 629.773 1228.85 638.006 1225.23 646.459C1221.71 654.911 1214.96 664.846 1204.97 676.262C1189.06 694.265 1179.29 707.053 1175.66 714.627C1172.15 722.092 1170.01 732.411 1169.24 745.583ZM1166.94 766.001C1172.1 766.001 1176.43 767.812 1179.95 771.435C1183.57 774.947 1185.38 779.283 1185.38 784.443C1185.38 789.492 1183.57 793.828 1179.95 797.451C1176.32 800.963 1171.99 802.72 1166.94 802.72C1161.89 802.72 1157.55 800.963 1153.93 797.451C1150.42 793.828 1148.66 789.492 1148.66 784.443C1148.66 779.283 1150.42 774.947 1153.93 771.435C1157.55 767.812 1161.89 766.001 1166.94 766.001Z" fill="black"/>
<path d="M1063.37 597.885V647.447H1098.61V658.973H1063.37V756.78C1063.37 766.55 1064.74 773.136 1067.48 776.539C1070.34 779.942 1073.96 781.644 1078.35 781.644C1081.97 781.644 1085.49 780.546 1088.89 778.351C1092.29 776.045 1094.93 772.697 1096.79 768.306H1103.22C1099.37 779.064 1093.94 787.187 1086.91 792.676C1079.89 798.055 1072.64 800.744 1065.18 800.744C1060.13 800.744 1055.19 799.372 1050.36 796.628C1045.53 793.774 1041.96 789.767 1039.66 784.608C1037.35 779.338 1036.2 771.27 1036.2 760.403V658.973H1012.32V653.539C1018.36 651.124 1024.51 647.063 1030.77 641.355C1037.13 635.537 1042.79 628.676 1047.73 620.772C1050.25 616.601 1053.76 608.972 1058.26 597.885H1063.37Z" fill="black"/>
<path d="M900.178 704.254C900.069 726.647 905.502 744.211 916.48 756.944C927.457 769.678 940.355 776.045 955.174 776.045C965.054 776.045 973.616 773.355 980.861 767.977C988.216 762.488 994.363 753.157 999.303 739.985L1004.41 743.278C1002.1 758.317 995.406 772.038 984.319 784.442C973.232 796.737 959.346 802.884 942.66 802.884C924.548 802.884 909.015 795.859 896.062 781.808C883.219 767.647 876.797 748.657 876.797 724.836C876.797 699.039 883.383 678.951 896.556 664.571C909.838 650.081 926.469 642.836 946.447 642.836C963.352 642.836 977.239 648.434 988.106 659.631C998.974 670.718 1004.41 685.592 1004.41 704.254H900.178ZM900.178 694.703H969.994C969.445 685.043 968.292 678.238 966.536 674.286C963.792 668.138 959.675 663.308 954.186 659.796C948.808 656.283 943.154 654.527 937.227 654.527C928.116 654.527 919.937 658.094 912.692 665.23C905.557 672.255 901.386 682.08 900.178 694.703Z" fill="black"/>
<path d="M834.308 569.893L840.071 640.366H834.308C828.49 622.803 820.971 609.575 811.75 600.684C798.467 587.84 781.398 581.419 760.541 581.419C732.11 581.419 710.485 592.67 695.665 615.174C683.261 634.164 677.059 656.777 677.059 683.013C677.059 704.309 681.175 723.739 689.408 741.302C697.641 758.866 708.399 771.764 721.681 779.997C735.074 788.12 748.795 792.182 762.846 792.182C771.079 792.182 779.038 791.139 786.722 789.053C794.406 786.967 801.815 783.894 808.951 779.832V715.286C808.951 704.089 808.072 696.789 806.316 693.386C804.669 689.874 802.035 687.239 798.412 685.483C794.9 683.617 788.643 682.684 779.641 682.684V676.427H866.087V682.684H861.971C853.408 682.684 847.536 685.538 844.352 691.246C842.157 695.307 841.059 703.321 841.059 715.286V783.619C828.435 790.425 815.976 795.42 803.681 798.603C791.387 801.787 777.72 803.378 762.681 803.378C719.541 803.378 686.774 789.547 664.38 761.884C647.585 741.137 639.188 717.207 639.188 690.093C639.188 670.444 643.908 651.618 653.348 633.615C664.545 612.21 679.913 595.744 699.453 584.218C715.809 574.668 735.129 569.893 757.412 569.893C765.536 569.893 772.89 570.551 779.477 571.868C786.173 573.186 795.613 576.095 807.798 580.595C813.945 582.901 818.062 584.053 820.147 584.053C822.233 584.053 823.989 583.12 825.416 581.254C826.953 579.278 827.886 575.491 828.216 569.893H834.308Z" fill="black"/>
<path d="M1677.91 84.3652H1748.22V90.4576H1744.76C1739.82 90.4576 1736.09 91.5553 1733.56 93.7508C1731.15 95.8365 1729.94 98.471 1729.94 101.654C1729.94 105.936 1731.75 111.863 1735.37 119.438L1772.09 195.51L1805.85 112.193C1807.71 107.692 1808.65 103.246 1808.65 98.8552C1808.65 96.8793 1808.26 95.3974 1807.49 94.4094C1806.61 93.2019 1805.24 92.2688 1803.38 91.6102C1801.51 90.8418 1798.22 90.4576 1793.5 90.4576V84.3652H1842.56V90.4576C1838.5 90.8967 1835.37 91.7749 1833.18 93.0921C1830.98 94.4094 1828.57 96.8793 1825.93 100.502C1824.95 102.039 1823.08 106.265 1820.34 113.18L1758.92 263.678C1752.99 278.278 1745.2 289.31 1735.54 296.775C1725.99 304.239 1716.77 307.972 1707.87 307.972C1701.4 307.972 1696.07 306.105 1691.9 302.373C1687.73 298.641 1685.65 294.36 1685.65 289.53C1685.65 284.919 1687.13 281.187 1690.09 278.333C1693.16 275.589 1697.34 274.217 1702.6 274.217C1706.23 274.217 1711.17 275.424 1717.42 277.839C1721.82 279.486 1724.56 280.309 1725.66 280.309C1728.95 280.309 1732.52 278.607 1736.36 275.205C1740.31 271.802 1744.26 265.215 1748.22 255.446L1758.92 229.265L1704.75 115.486C1703.1 112.083 1700.46 107.857 1696.84 102.807C1694.1 98.965 1691.85 96.3853 1690.09 95.0681C1687.57 93.3117 1683.5 91.7749 1677.91 90.4576V84.3652Z" fill="black"/>
<path d="M1628.83 213.458C1613.35 225.423 1603.64 232.339 1599.69 234.205C1593.76 236.949 1587.45 238.322 1580.75 238.322C1570.32 238.322 1561.71 234.754 1554.9 227.619C1548.2 220.483 1544.86 211.098 1544.86 199.462C1544.86 192.107 1546.5 185.741 1549.8 180.362C1554.3 172.897 1562.09 165.872 1573.18 159.285C1584.37 152.699 1602.93 144.686 1628.83 135.245V129.318C1628.83 114.279 1626.42 103.96 1621.59 98.3617C1616.87 92.7633 1609.95 89.9641 1600.84 89.9641C1593.92 89.9641 1588.44 91.8303 1584.37 95.5625C1580.2 99.2948 1578.12 103.576 1578.12 108.406L1578.45 117.956C1578.45 123.006 1577.13 126.903 1574.49 129.647C1571.97 132.391 1568.62 133.763 1564.45 133.763C1560.39 133.763 1557.04 132.336 1554.41 129.482C1551.88 126.628 1550.62 122.731 1550.62 117.791C1550.62 108.351 1555.45 99.679 1565.11 91.7754C1574.77 83.8717 1588.33 79.9199 1605.78 79.9199C1619.17 79.9199 1630.15 82.1703 1638.71 86.671C1645.19 90.0739 1649.96 95.3979 1653.04 102.643C1655.01 107.363 1656 117.023 1656 131.623V182.832C1656 197.212 1656.27 206.048 1656.82 209.342C1657.37 212.525 1658.25 214.666 1659.46 215.763C1660.78 216.861 1662.26 217.41 1663.9 217.41C1665.66 217.41 1667.2 217.026 1668.51 216.257C1670.82 214.83 1675.27 210.824 1681.85 204.237V213.458C1669.56 229.924 1657.81 238.157 1646.61 238.157C1641.24 238.157 1636.95 236.291 1633.77 232.558C1630.59 228.826 1628.94 222.459 1628.83 213.458ZM1628.83 202.755V145.289C1612.26 151.876 1601.55 156.541 1596.72 159.285C1588.05 164.115 1581.85 169.165 1578.12 174.434C1574.38 179.703 1572.52 185.466 1572.52 191.723C1572.52 199.627 1574.88 206.213 1579.6 211.482C1584.32 216.641 1589.75 219.221 1595.9 219.221C1604.24 219.221 1615.22 213.732 1628.83 202.755Z" fill="black"/>
<path d="M1506.48 6.8125V84.0374H1500.39C1498.41 69.2181 1494.84 57.4176 1489.68 48.6358C1484.63 39.854 1477.39 32.8834 1467.95 27.7241C1458.51 22.5648 1448.74 19.9852 1438.64 19.9852C1427.22 19.9852 1417.78 23.4979 1410.32 30.5233C1402.85 37.439 1399.12 45.3426 1399.12 54.2342C1399.12 61.0401 1401.48 67.2422 1406.2 72.8406C1413.01 81.0735 1429.2 92.0508 1454.78 105.772C1475.63 116.969 1489.85 125.586 1497.42 131.624C1505.11 137.551 1510.98 144.577 1515.04 152.7C1519.21 160.823 1521.3 169.331 1521.3 178.222C1521.3 195.127 1514.71 209.727 1501.54 222.021C1488.48 234.206 1471.63 240.298 1450.99 240.298C1444.51 240.298 1438.42 239.804 1432.71 238.816C1429.31 238.268 1422.23 236.292 1411.47 232.889C1400.82 229.376 1394.07 227.62 1391.22 227.62C1388.47 227.62 1386.28 228.443 1384.63 230.09C1383.1 231.736 1381.94 235.139 1381.17 240.298H1375.08V163.732H1381.17C1384.03 179.759 1387.87 191.779 1392.7 199.792C1397.53 207.696 1404.89 214.282 1414.76 219.551C1424.75 224.82 1435.68 227.455 1447.53 227.455C1461.25 227.455 1472.07 223.833 1479.97 216.588C1487.98 209.343 1491.99 200.78 1491.99 190.901C1491.99 185.412 1490.45 179.869 1487.38 174.27C1484.42 168.672 1479.75 163.458 1473.38 158.628C1469.1 155.335 1457.41 148.364 1438.31 137.716C1419.21 126.958 1405.6 118.396 1397.48 112.029C1389.46 105.663 1383.37 98.6371 1379.2 90.953C1375.03 83.269 1372.94 74.8165 1372.94 65.5956C1372.94 49.5688 1379.09 35.7924 1391.38 24.2663C1403.68 12.6304 1419.32 6.8125 1438.31 6.8125C1450.17 6.8125 1462.74 9.72147 1476.02 15.5394C1482.16 18.2837 1486.5 19.6559 1489.03 19.6559C1491.88 19.6559 1494.18 18.8326 1495.94 17.186C1497.81 15.4296 1499.29 11.9718 1500.39 6.8125H1506.48Z" fill="black"/>
<path d="M1255.44 82.1562V173.542C1255.44 190.996 1255.82 201.698 1256.59 205.65C1257.47 209.492 1258.79 212.182 1260.54 213.718C1262.41 215.255 1264.55 216.024 1266.96 216.024C1270.37 216.024 1274.21 215.091 1278.49 213.224L1280.79 218.988L1235.68 237.594H1228.27V205.65C1215.32 219.701 1205.44 228.538 1198.63 232.16C1191.82 235.783 1184.63 237.594 1177.06 237.594C1168.61 237.594 1161.25 235.179 1155 230.349C1148.85 225.409 1144.57 219.097 1142.15 211.413C1139.74 203.729 1138.53 192.862 1138.53 178.811V111.465C1138.53 104.33 1137.76 99.3905 1136.22 96.6462C1134.69 93.9019 1132.38 91.8162 1129.31 90.3892C1126.35 88.8524 1120.91 88.1388 1113.01 88.2486V82.1562H1165.86V183.092C1165.86 197.143 1168.28 206.364 1173.11 210.755C1178.05 215.145 1183.98 217.341 1190.89 217.341C1195.61 217.341 1200.94 215.859 1206.86 212.895C1212.9 209.931 1220.04 204.278 1228.27 195.935V110.478C1228.27 101.915 1226.68 96.1522 1223.49 93.1884C1220.42 90.1147 1213.94 88.4682 1204.06 88.2486V82.1562H1255.44Z" fill="black"/>
<path d="M1033.81 77.7109C1056.65 77.7109 1074.98 86.383 1088.81 103.727C1100.56 118.546 1106.43 135.561 1106.43 154.771C1106.43 168.273 1103.19 181.94 1096.71 195.771C1090.24 209.602 1081.29 220.031 1069.87 227.056C1058.57 234.082 1045.94 237.594 1032 237.594C1009.28 237.594 991.223 228.538 977.831 210.426C966.524 195.167 960.871 178.043 960.871 159.052C960.871 145.221 964.274 131.499 971.08 117.888C977.995 104.166 987.052 94.067 998.249 87.5904C1009.45 81.0041 1021.3 77.7109 1033.81 77.7109ZM1028.71 88.4137C1022.89 88.4137 1017.02 90.1701 1011.09 93.6828C1005.27 97.0858 1000.55 103.123 996.931 111.795C993.309 120.467 991.498 131.609 991.498 145.221C991.498 167.175 995.834 186.111 1004.51 202.028C1013.29 217.945 1024.81 225.904 1039.08 225.904C1049.73 225.904 1058.51 221.513 1065.43 212.731C1072.34 203.949 1075.8 188.855 1075.8 167.45C1075.8 140.665 1070.04 119.589 1058.51 104.221C1050.72 93.6828 1040.79 88.4137 1028.71 88.4137Z" fill="black"/>
<path d="M923.082 9.70703H1000.97V15.7994H996.685C993.831 15.7994 989.659 17.0618 984.171 19.5865C978.682 22.1113 973.687 25.7338 969.187 30.454C964.686 35.1742 959.142 42.8583 952.556 53.5062L898.713 138.305V194.289C898.713 208.011 900.249 216.573 903.323 219.976C907.494 224.586 914.081 226.892 923.082 226.892H930.327V232.984H835.484V226.892H843.387C852.828 226.892 859.524 224.038 863.476 218.329C865.891 214.817 867.098 206.803 867.098 194.289V141.434L805.845 47.9078C798.6 36.9306 793.66 30.0698 791.026 27.3255C788.501 24.5812 783.177 21.288 775.054 17.446C772.859 16.3483 769.675 15.7994 765.504 15.7994V9.70703H861.006V15.7994H856.066C850.907 15.7994 846.132 17.0069 841.741 19.4219C837.46 21.8369 835.319 25.4594 835.319 30.2894C835.319 34.2412 838.667 41.3764 845.363 51.695L891.962 123.651L935.761 54.8235C942.347 44.5049 945.64 36.8208 945.64 31.7713C945.64 28.6977 944.817 25.9533 943.17 23.5384C941.634 21.1234 939.383 19.2572 936.419 17.94C933.456 16.5129 929.01 15.7994 923.082 15.7994V9.70703Z" fill="black"/>
<path d="M669.864 32.5938V82.156H705.101V93.6821H669.864V191.489C669.864 201.259 671.237 207.845 673.981 211.248C676.835 214.651 680.458 216.353 684.848 216.353C688.471 216.353 691.984 215.255 695.387 213.06C698.789 210.754 701.424 207.406 703.29 203.015H709.712C705.87 213.773 700.436 221.896 693.411 227.385C686.385 232.764 679.14 235.453 671.676 235.453C666.626 235.453 661.686 234.081 656.856 231.337C652.026 228.483 648.459 224.476 646.154 219.317C643.848 214.048 642.696 205.979 642.696 195.112V93.6821H618.82V88.2484C624.858 85.8334 631.005 81.7718 637.262 76.0636C643.629 70.2457 649.282 63.3849 654.222 55.4813C656.747 51.3099 660.259 43.6808 664.76 32.5938H669.864Z" fill="black"/>
<path d="M566.777 211.249C551.299 223.214 541.584 230.13 537.632 231.996C531.704 234.74 525.392 236.113 518.696 236.113C508.268 236.113 499.651 232.545 492.845 225.41C486.149 218.274 482.801 208.889 482.801 197.253C482.801 189.898 484.447 183.532 487.741 178.153C492.241 170.688 500.035 163.663 511.122 157.076C522.319 150.49 540.87 142.477 566.777 133.036V127.109C566.777 112.07 564.362 101.751 559.532 96.1527C554.812 90.5543 547.896 87.7551 538.785 87.7551C531.869 87.7551 526.38 89.6212 522.319 93.3535C518.148 97.0858 516.062 101.367 516.062 106.197L516.391 115.747C516.391 120.797 515.074 124.694 512.439 127.438C509.915 130.182 506.567 131.554 502.395 131.554C498.334 131.554 494.986 130.127 492.351 127.273C489.826 124.419 488.564 120.522 488.564 115.582C488.564 106.142 493.394 97.47 503.054 89.5664C512.714 81.6627 526.271 77.7109 543.725 77.7109C557.117 77.7109 568.094 79.9613 576.656 84.4619C583.133 87.8649 587.908 93.1888 590.981 100.434C592.957 105.154 593.945 114.814 593.945 129.414V180.623C593.945 195.003 594.22 203.839 594.769 207.133C595.318 210.316 596.196 212.457 597.403 213.554C598.72 214.652 600.202 215.201 601.849 215.201C603.605 215.201 605.142 214.817 606.459 214.048C608.765 212.621 613.21 208.615 619.797 202.028V211.249C607.502 227.715 595.757 235.948 584.56 235.948C579.181 235.948 574.9 234.082 571.716 230.349C568.533 226.617 566.886 220.25 566.777 211.249ZM566.777 200.546V143.08C550.201 149.667 539.498 154.332 534.668 157.076C525.996 161.906 519.794 166.956 516.062 172.225C512.33 177.494 510.463 183.257 510.463 189.514C510.463 197.418 512.824 204.004 517.544 209.273C522.264 214.432 527.698 217.012 533.845 217.012C542.188 217.012 553.165 211.523 566.777 200.546Z" fill="black"/>
<path d="M362.094 0V109.16C374.278 95.7682 383.938 87.2059 391.073 83.4737C398.209 79.6317 405.344 77.7106 412.479 77.7106C421.041 77.7106 428.396 80.0707 434.543 84.791C440.691 89.5112 445.246 96.9208 448.21 107.02C450.296 114.045 451.339 126.889 451.339 145.55V198.899C451.339 208.45 452.107 214.981 453.644 218.494C454.741 221.128 456.608 223.214 459.242 224.751C461.877 226.288 466.707 227.056 473.732 227.056V232.984H399.636V227.056H403.094C410.119 227.056 415.004 226.013 417.748 223.927C420.492 221.732 422.414 218.549 423.511 214.377C423.841 212.621 424.005 207.462 424.005 198.899V145.55C424.005 129.084 423.127 118.272 421.371 113.112C419.724 107.953 417.035 104.111 413.302 101.586C409.57 98.9516 405.07 97.6343 399.8 97.6343C394.422 97.6343 388.823 99.0614 383.005 101.915C377.187 104.77 370.217 110.533 362.094 119.205V198.899C362.094 209.218 362.642 215.64 363.74 218.164C364.948 220.689 367.088 222.83 370.162 224.586C373.345 226.233 378.779 227.056 386.463 227.056V232.984H311.708V227.056C318.404 227.056 323.673 226.013 327.515 223.927C329.711 222.83 331.467 220.744 332.784 217.67C334.102 214.597 334.76 208.34 334.76 198.899V62.3974C334.76 45.1631 334.321 34.5701 333.443 30.6183C332.675 26.6665 329.656 22.55 329.656 22.55C329.656 22.55 322.743 15.7907 311.188 15.7907L311.189 9.67281L354.519 0H362.094Z" fill="black"/>
<path d="M311.205 9.70703V15.7994C305.387 15.7994 300.667 16.8422 297.044 18.9279C293.422 21.0136 289.964 24.9105 286.671 30.6187C284.475 34.4607 281.017 43.6267 276.297 58.1167L214.056 238.088H207.47L156.59 95.3295L106.04 238.088H100.112L33.755 52.6829C28.8153 38.8516 25.6868 30.6736 24.3695 28.1488C22.1741 23.9774 19.1553 20.9038 15.3133 18.9279C11.581 16.8422 6.47657 15.7994 0 15.7994V9.70703H82.6586V15.7994H78.7068C72.8889 15.7994 68.4431 17.1167 65.3695 19.7512C62.2959 22.3857 60.759 25.5691 60.759 29.3014C60.759 33.1434 63.174 41.9801 68.004 55.8114L111.968 181.117L149.016 74.5825L142.43 55.8114L137.161 40.8275C134.855 35.3389 132.276 30.5089 129.422 26.3375C127.995 24.2519 126.238 22.4955 124.153 21.0685C121.408 19.0926 118.664 17.6655 115.92 16.7873C113.834 16.1287 110.541 15.7994 106.04 15.7994V9.70703H192.98V15.7994H187.052C180.905 15.7994 176.404 17.1167 173.55 19.7512C170.696 22.3857 169.269 25.9533 169.269 30.454C169.269 36.0524 171.739 45.8221 176.679 59.7632L219.49 181.117L261.972 58.1167C266.802 44.5049 269.217 35.0645 269.217 29.7954C269.217 27.2706 268.394 24.9105 266.747 22.7151C265.21 20.5196 263.234 18.9828 260.819 18.1046C256.648 16.5678 251.214 15.7994 244.518 15.7994V9.70703H311.205Z" fill="black"/>
<path d="M1688.8 359.994V451.38C1688.8 468.834 1689.19 479.536 1689.96 483.488C1690.84 487.33 1692.15 490.02 1693.91 491.556C1695.78 493.093 1697.92 493.862 1700.33 493.862C1703.73 493.862 1707.58 492.929 1711.86 491.062L1714.16 496.825L1669.05 515.432H1661.64V483.488C1648.68 497.539 1638.8 506.376 1632 509.998C1625.19 513.621 1618 515.432 1610.43 515.432C1601.97 515.432 1594.62 513.017 1588.36 508.187C1582.22 503.247 1577.93 496.935 1575.52 489.251C1573.1 481.567 1571.9 470.7 1571.9 456.649V389.303C1571.9 382.168 1571.13 377.228 1569.59 374.484C1568.06 371.74 1565.75 369.654 1562.68 368.227C1559.71 366.69 1554.28 365.977 1546.38 366.087V359.994H1599.23V460.93C1599.23 474.981 1601.65 484.202 1606.48 488.592C1611.42 492.983 1617.34 495.179 1624.26 495.179C1628.98 495.179 1634.3 493.697 1640.23 490.733C1646.27 487.769 1653.4 482.116 1661.64 473.773V388.315C1661.64 379.753 1660.04 373.99 1656.86 371.026C1653.79 367.953 1647.31 366.306 1637.43 366.087V359.994H1688.8Z" fill="black"/>
<path d="M1467.19 355.549C1490.02 355.549 1508.35 364.221 1522.19 381.565C1533.93 396.384 1539.8 413.399 1539.8 432.609C1539.8 446.111 1536.57 459.778 1530.09 473.609C1523.61 487.44 1514.67 497.869 1503.25 504.894C1491.94 511.92 1479.32 515.432 1465.38 515.432C1442.66 515.432 1424.6 506.376 1411.21 488.264C1399.9 473.005 1394.25 455.881 1394.25 436.89C1394.25 423.059 1397.65 409.337 1404.45 395.726C1411.37 382.004 1420.43 371.905 1431.62 365.428C1442.82 358.842 1454.68 355.549 1467.19 355.549ZM1462.09 366.252C1456.27 366.252 1450.39 368.008 1444.47 371.521C1438.65 374.924 1433.93 380.961 1430.31 389.633C1426.68 398.305 1424.87 409.447 1424.87 423.059C1424.87 445.013 1429.21 463.949 1437.88 479.866C1446.66 495.783 1458.19 503.742 1472.46 503.742C1483.11 503.742 1491.89 499.351 1498.8 490.569C1505.72 481.787 1509.18 466.693 1509.18 445.288C1509.18 418.503 1503.41 397.427 1491.89 382.059C1484.09 371.521 1474.16 366.252 1462.09 366.252Z" fill="black"/>
<path d="M1356.46 287.545H1434.34V293.637H1430.06C1427.21 293.637 1423.03 294.9 1417.55 297.424C1412.06 299.949 1407.06 303.572 1402.56 308.292C1398.06 313.012 1392.52 320.696 1385.93 331.344L1332.09 416.143V472.127C1332.09 485.849 1333.62 494.411 1336.7 497.814C1340.87 502.424 1347.46 504.73 1356.46 504.73H1363.7V510.822H1268.86V504.73H1276.76C1286.2 504.73 1292.9 501.876 1296.85 496.167C1299.27 492.655 1300.47 484.641 1300.47 472.127V419.272L1239.22 325.746C1231.98 314.768 1227.04 307.908 1224.4 305.163C1221.88 302.419 1216.55 299.126 1208.43 295.284C1206.23 294.186 1203.05 293.637 1198.88 293.637V287.545H1294.38V293.637H1289.44C1284.28 293.637 1279.51 294.845 1275.12 297.26C1270.83 299.675 1268.69 303.297 1268.69 308.127C1268.69 312.079 1272.04 319.214 1278.74 329.533L1325.34 401.489L1369.14 332.661C1375.72 322.343 1379.02 314.659 1379.02 309.609C1379.02 306.536 1378.19 303.791 1376.55 301.376C1375.01 298.961 1372.76 297.095 1369.79 295.778C1366.83 294.351 1362.38 293.637 1356.46 293.637V287.545Z" fill="black"/>
<path d="M1114.5 310.43V359.992H1149.73V371.518H1114.5V469.325C1114.5 479.095 1115.87 485.681 1118.61 489.084C1121.47 492.487 1125.09 494.189 1129.48 494.189C1133.1 494.189 1136.62 493.091 1140.02 490.895C1143.42 488.59 1146.06 485.242 1147.92 480.851H1154.34C1150.5 491.609 1145.07 499.732 1138.04 505.221C1131.02 510.6 1123.77 513.289 1116.31 513.289C1111.26 513.289 1106.32 511.917 1101.49 509.173C1096.66 506.319 1093.09 502.312 1090.79 497.153C1088.48 491.883 1087.33 483.815 1087.33 472.948V371.518H1063.45V366.084C1069.49 363.669 1075.64 359.608 1081.89 353.9C1088.26 348.082 1093.91 341.221 1098.85 333.317C1101.38 329.146 1104.89 321.517 1109.39 310.43H1114.5Z" fill="black"/>
<path d="M1011.41 489.087C995.932 501.052 986.217 507.968 982.265 509.834C976.337 512.578 970.025 513.95 963.329 513.95C952.901 513.95 944.284 510.383 937.478 503.248C930.782 496.112 927.434 486.727 927.434 475.091C927.434 467.736 929.08 461.369 932.373 455.991C936.874 448.526 944.668 441.501 955.755 434.914C966.952 428.328 985.503 420.315 1011.41 410.874V404.946C1011.41 389.908 1008.99 379.589 1004.16 373.991C999.444 368.392 992.529 365.593 983.418 365.593C976.502 365.593 971.013 367.459 966.952 371.191C962.78 374.924 960.695 379.205 960.695 384.035L961.024 393.585C961.024 398.635 959.707 402.531 957.072 405.276C954.547 408.02 951.199 409.392 947.028 409.392C942.966 409.392 939.618 407.965 936.984 405.111C934.459 402.257 933.197 398.36 933.197 393.42C933.197 383.98 938.027 375.308 947.687 367.404C957.347 359.501 970.904 355.549 988.357 355.549C1001.75 355.549 1012.73 357.799 1021.29 362.3C1027.77 365.703 1032.54 371.027 1035.61 378.272C1037.59 382.992 1038.58 392.652 1038.58 407.252V458.46C1038.58 472.841 1038.85 481.677 1039.4 484.971C1039.95 488.154 1040.83 490.294 1042.04 491.392C1043.35 492.49 1044.84 493.039 1046.48 493.039C1048.24 493.039 1049.77 492.655 1051.09 491.886C1053.4 490.459 1057.84 486.452 1064.43 479.866V489.087C1052.14 505.553 1040.39 513.786 1029.19 513.786C1023.81 513.786 1019.53 511.92 1016.35 508.187C1013.17 504.455 1011.52 498.088 1011.41 489.087ZM1011.41 478.384V420.918C994.834 427.505 984.131 432.17 979.301 434.914C970.629 439.744 964.427 444.794 960.695 450.063C956.962 455.332 955.096 461.095 955.096 467.352C955.096 475.256 957.456 481.842 962.177 487.111C966.897 492.27 972.331 494.85 978.478 494.85C986.82 494.85 997.798 489.361 1011.41 478.384Z" fill="black"/>
<path d="M370.105 358.035V409.409H364.671C360.5 393.272 355.121 382.295 348.535 376.477C342.058 370.659 333.77 367.75 323.671 367.75C315.987 367.75 309.785 369.781 305.065 373.842C300.344 377.904 297.984 382.405 297.984 387.344C297.984 393.492 299.741 398.761 303.254 403.152C306.656 407.652 313.572 412.427 324 417.477L348.041 429.168C370.324 440.035 381.466 454.36 381.466 472.144C381.466 485.865 376.252 496.952 365.824 505.405C355.505 513.747 343.924 517.919 331.081 517.919C321.86 517.919 311.322 516.272 299.466 512.979C295.844 511.881 292.88 511.332 290.575 511.332C288.05 511.332 286.074 512.759 284.647 515.613H279.213V461.77H284.647C287.721 477.138 293.594 488.719 302.266 496.513C310.938 504.307 320.652 508.204 331.41 508.204C338.984 508.204 345.132 506.008 349.852 501.617C354.682 497.117 357.097 491.738 357.097 485.481C357.097 477.907 354.407 471.54 349.029 466.381C343.76 461.221 333.166 454.69 317.249 446.786C301.332 438.883 290.904 431.747 285.964 425.381C281.025 419.123 278.555 411.22 278.555 401.67C278.555 389.265 282.781 378.892 291.233 370.549C299.796 362.207 310.828 358.035 324.33 358.035C330.257 358.035 337.448 359.298 345.9 361.822C351.498 363.469 355.231 364.292 357.097 364.292C358.853 364.292 360.225 363.908 361.213 363.14C362.201 362.371 363.354 360.67 364.671 358.035H370.105Z" fill="black"/>
<path d="M260.6 507.214V513.306H164.934V507.214H172.837C182.058 507.214 188.754 504.525 192.926 499.146C195.56 495.633 196.877 487.181 196.877 473.788V329.547C196.877 318.241 196.164 310.776 194.737 307.154C193.639 304.409 191.389 302.049 187.986 300.073C183.156 297.439 178.106 296.122 172.837 296.122H164.934V290.029H260.6V296.122H252.532C243.421 296.122 236.78 298.811 232.608 304.19C229.864 307.703 228.492 316.155 228.492 329.547V473.788C228.492 485.095 229.205 492.559 230.632 496.182C231.73 498.926 234.035 501.286 237.548 503.262C242.268 505.897 247.263 507.214 252.532 507.214H260.6Z" fill="black"/>
<path d="M806.726 277.838V386.998C818.911 373.606 828.571 365.044 835.706 361.312C842.842 357.47 849.977 355.549 857.112 355.549C865.674 355.549 873.029 357.909 879.176 362.629C885.323 367.349 889.879 374.759 892.843 384.858C894.929 391.883 895.971 404.727 895.971 423.388V476.737C895.971 486.287 896.74 492.819 898.277 496.332C899.374 498.966 901.24 501.052 903.875 502.589C906.509 504.125 911.339 504.894 918.365 504.894V510.822H844.269V504.894H847.726C854.752 504.894 859.637 503.851 862.381 501.765C865.125 499.57 867.046 496.386 868.144 492.215C868.473 490.459 868.638 485.299 868.638 476.737V423.388C868.638 406.922 867.76 396.109 866.003 390.95C864.357 385.791 861.668 381.949 857.935 379.424C854.203 376.789 849.702 375.472 844.433 375.472C839.054 375.472 833.456 376.899 827.638 379.753C821.82 382.607 814.85 388.37 806.726 397.042V476.737C806.726 487.056 807.275 493.478 808.373 496.002C809.58 498.527 811.721 500.668 814.795 502.424C817.978 504.071 823.412 504.894 831.096 504.894V510.822H756.341V504.894C763.037 504.894 768.306 503.851 772.148 501.765C774.344 500.668 776.1 498.582 777.417 495.508C778.734 492.435 779.393 486.178 779.393 476.737V340.235C779.393 323.001 778.954 312.408 778.076 308.456C777.307 304.504 774.289 300.388 774.289 300.388C774.289 300.388 767.376 293.629 755.82 293.629L755.822 287.511L799.152 277.838H806.726Z" fill="black"/>
<path d="M755.841 287.545V293.637C750.024 293.637 745.303 294.68 741.681 296.766C738.058 298.851 734.601 302.748 731.307 308.457C729.112 312.299 725.654 321.465 720.934 335.955L658.693 515.926H652.107L601.227 373.167L550.677 515.926H544.749L478.392 330.521C473.452 316.689 470.323 308.511 469.006 305.987C466.811 301.815 463.792 298.742 459.95 296.766C456.218 294.68 451.113 293.637 444.637 293.637V287.545H527.295V293.637H523.344C517.526 293.637 513.08 294.955 510.006 297.589C506.933 300.224 505.396 303.407 505.396 307.139C505.396 310.981 507.811 319.818 512.641 333.649L556.605 458.955L593.653 352.42L587.066 333.649L581.797 318.665C579.492 313.177 576.912 308.347 574.058 304.175C572.631 302.09 570.875 300.333 568.789 298.906C566.045 296.93 563.301 295.503 560.556 294.625C558.471 293.967 555.178 293.637 550.677 293.637V287.545H637.617V293.637H631.689C625.542 293.637 621.041 294.955 618.187 297.589C615.333 300.224 613.906 303.791 613.906 308.292C613.906 313.89 616.376 323.66 621.315 337.601L664.127 458.955L706.609 335.955C711.439 322.343 713.854 312.902 713.854 307.633C713.854 305.109 713.03 302.748 711.384 300.553C709.847 298.358 707.871 296.821 705.456 295.943C701.285 294.406 695.851 293.637 689.155 293.637V287.545H755.841Z" fill="black"/>
</svg>
